<?xml version="1.0" encoding="UTF-8" standalone="no"?>
<!-- Created with Inkscape (http://www.inkscape.org/) -->

<svg
   version="1.1"
   id="svg2"
   width="1000"
   height="570.33331"
   viewBox="0 0 1000 570.33331"
   sodipodi:docname="7506748.eps"
   xmlns:inkscape="http://www.inkscape.org/namespaces/inkscape"
   xmlns:sodipodi="http://sodipodi.sourceforge.net/DTD/sodipodi-0.dtd"
   xmlns="http://www.w3.org/2000/svg"
   xmlns:svg="http://www.w3.org/2000/svg">
  <defs
     id="defs6" />
  <sodipodi:namedview
     id="namedview4"
     pagecolor="#ffffff"
     bordercolor="#000000"
     borderopacity="0.25"
     inkscape:showpageshadow="2"
     inkscape:pageopacity="0.0"
     inkscape:pagecheckerboard="0"
     inkscape:deskcolor="#d1d1d1" />
  <g
     id="g8"
     inkscape:groupmode="layer"
     inkscape:label="ink_ext_XXXXXX"
     transform="matrix(1.3333333,0,0,-1.3333333,0,570.33333)">
    <g
       id="g10"
       transform="scale(0.1)">
      <path
         d="m 4929.88,3989.02 c -30.95,0 -56.13,-25.18 -56.13,-56.12 V 1300.17 c 0,-30.95 25.18,-56.13 56.13,-56.13 h 1807.46 c 30.94,0 56.12,25.18 56.12,56.13 V 3932.9 c 0,30.94 -25.18,56.12 -56.12,56.12 H 4929.88 M 6737.34,1241.54 H 4929.88 c -32.33,0 -58.63,26.3 -58.63,58.63 V 3932.9 c 0,32.33 26.3,58.62 58.63,58.62 h 1807.46 c 32.32,0 58.62,-26.29 58.62,-58.62 V 1300.17 c 0,-32.33 -26.3,-58.63 -58.62,-58.63"
         style="fill:#dadbd8;fill-opacity:1;fill-rule:nonzero;stroke:none"
         id="path12" />
      <path
         d="m 2845.59,3989.02 c -30.94,0 -56.11,-25.18 -56.11,-56.12 V 1300.17 c 0,-30.95 25.17,-56.13 56.11,-56.13 h 1807.47 c 30.95,0 56.12,25.18 56.12,56.13 V 3932.9 c 0,30.94 -25.17,56.12 -56.12,56.12 H 2845.59 M 4653.06,1241.54 H 2845.59 c -32.32,0 -58.61,26.3 -58.61,58.63 V 3932.9 c 0,32.33 26.29,58.62 58.61,58.62 h 1807.47 c 32.32,0 58.62,-26.29 58.62,-58.62 V 1300.17 c 0,-32.33 -26.3,-58.63 -58.62,-58.63"
         style="fill:#dadbd8;fill-opacity:1;fill-rule:nonzero;stroke:none"
         id="path14" />
      <path
         d="m 762.656,3989.02 c -30.941,0 -56.117,-25.18 -56.117,-56.12 V 1300.17 c 0,-30.95 25.176,-56.13 56.117,-56.13 H 2570.12 c 30.95,0 56.13,25.18 56.13,56.13 V 3932.9 c 0,30.94 -25.18,56.12 -56.13,56.12 H 762.656 M 2570.12,1241.54 H 762.656 c -32.32,0 -58.613,26.3 -58.613,58.63 V 3932.9 c 0,32.33 26.293,58.62 58.613,58.62 H 2570.12 c 32.33,0 58.63,-26.29 58.63,-58.62 V 1300.17 c 0,-32.33 -26.3,-58.63 -58.63,-58.63"
         style="fill:#dadbd8;fill-opacity:1;fill-rule:nonzero;stroke:none"
         id="path16" />
      <path
         d="m 0,629.648 h 7500 v 1.20313 H 0 Z"
         style="fill:#dadbd8;fill-opacity:1;fill-rule:nonzero;stroke:none"
         id="path18" />
      <path
         d="m 6536.26,337.09 h 557.29 v -4.211 h -557.29 v 4.211"
         style="fill:#e7e8e5;fill-opacity:1;fill-rule:nonzero;stroke:none"
         id="path20" />
      <path
         d="m 4950.44,291.43 h 146.26 v -4.2 h -146.26 v 4.2"
         style="fill:#e7e8e5;fill-opacity:1;fill-rule:nonzero;stroke:none"
         id="path22" />
      <path
         d="m 406.445,465.059 h 726.745 v -4.207 H 406.445 v 4.207"
         style="fill:#e7e8e5;fill-opacity:1;fill-rule:nonzero;stroke:none"
         id="path24" />
      <path
         d="m 1282.99,465.059 h 106.56 v -4.207 h -106.56 v 4.207"
         style="fill:#e7e8e5;fill-opacity:1;fill-rule:nonzero;stroke:none"
         id="path26" />
      <path
         d="m 1735.86,394.02 h 1576.13 v -4.211 H 1735.86 v 4.211"
         style="fill:#e7e8e5;fill-opacity:1;fill-rule:nonzero;stroke:none"
         id="path28" />
      <path
         d="m 3063.09,2840.09 c -16.41,9.91 -35.41,14.67 -54.56,13.67 -11.75,14.27 -2.27,35.73 9.12,50.24 11.39,14.51 25.3,31.05 20.98,49.04 -6.72,26.98 -44.6,28.06 -71.94,22.78 -10.07,16.31 -9.84,36.57 -14.75,55.4 -4.92,18.82 -20.98,38.61 -38.85,35.97 -17.87,-2.64 -28.9,-22.42 -46.52,-26.62 -20.51,-4.79 -38.25,13.31 -54.32,26.86 -1.98,1.69 -4.06,3.26 -6.23,4.68 3.35,56.23 56.83,47.24 102.39,54.91 35.62,5.88 -58.75,95.93 13.19,124.95 13.94,3.82 26.16,12.28 34.66,23.98 7.45,18.2 0.84,39.13 -15.71,49.76 -16.38,9.88 -35.34,14.64 -54.44,13.67 -11.75,14.26 -2.28,35.73 9.11,50.24 11.39,14.51 25.18,31.05 20.99,49.04 -6.84,26.98 -44.61,28.05 -71.94,22.78 -10.08,16.31 -9.84,36.57 -14.75,55.4 -4.92,18.82 -20.87,38.6 -38.85,35.97 -17.99,-2.64 -28.9,-22.43 -46.53,-26.62 -20.5,-4.8 -38.25,13.31 -54.31,26.86 -16.07,13.55 -44.13,22.06 -55.16,4.2 -6.59,-10.56 -2.64,-25.43 -9.59,-35.98 -11.87,-17.98 -40.29,-6.95 -57.8,6 -17.5,12.94 -45.8,24.7 -57.79,6.71 -3.12,-5.89 -5.42,-12.18 -6.83,-18.71 -1.71,-4.64 -4.1,-9 -7.08,-12.95 -3.48,12.48 -4.56,26.03 -7.79,38.61 -4.92,18.71 -20.87,38.62 -38.85,35.98 -17.99,-2.64 -28.9,-22.55 -46.53,-26.62 -20.5,-4.92 -38.24,13.31 -54.31,26.86 -16.07,13.55 -44.13,22.06 -55.16,4.07 -6.59,-10.55 -2.64,-25.42 -9.59,-35.97 -1.44,-2.37 -3.41,-4.39 -5.76,-5.87 -6.11,1.2 -12.11,1.2 -18.1,1.2 -11.75,14.15 -2.28,35.49 9.11,50.12 11.39,14.62 25.3,31.17 20.98,49.04 -6.71,27.1 -44.6,28.06 -71.94,22.78 -10.07,16.43 -9.83,36.69 -14.75,55.39 -4.91,18.71 -20.86,38.73 -38.85,35.98 -17.98,-2.76 -28.89,-22.55 -46.52,-26.74 -20.51,-4.8 -38.25,13.19 -54.32,26.86 -16.06,13.67 -44.12,22.06 -55.15,4.19 -6.6,-10.43 -2.64,-25.42 -9.6,-35.97 -11.87,-17.86 -40.04,-6.83 -57.67,6.12 -17.63,12.95 -45.92,24.7 -57.92,6.71 -3.14,-5.92 -5.44,-12.26 -6.83,-18.82 -8.27,-23.98 -34.29,-35.97 -54.44,-51.32 -20.14,-15.35 -36.09,-45.93 -19.06,-64.63 8.39,-9.35 23.26,-12.83 27.46,-24.82 5.15,-14.15 -9.84,-27.94 -21.83,-38.13 -15.71,-17.44 -20.34,-42.21 -11.99,-64.15 -5.97,-5.44 -13.04,-9.53 -20.74,-11.99 -20.5,-4.8 -38.25,13.31 -54.32,26.85 -16.06,13.56 -44.12,22.07 -55.15,4.2 -6.6,-10.43 -2.64,-25.41 -9.6,-35.97 -11.87,-17.98 -40.04,-6.95 -57.67,6 -17.63,12.95 -45.92,24.7 -57.92,6.71 -3.12,-5.89 -5.42,-12.19 -6.83,-18.7 -8.27,-23.99 -34.29,-35.97 -54.44,-51.32 -20.14,-15.35 -36.09,-45.93 -19.06,-64.75 8.03,-9.35 21.94,-13.19 26.74,-23.98 -14.15,5.64 -30.46,4.19 -37.05,-6.36 -6.6,-10.55 -2.64,-25.42 -9.6,-35.97 -11.87,-17.99 -40.04,-6.95 -57.67,6 -17.62,12.95 -45.92,24.7 -57.91,6.72 -3.15,-5.93 -5.45,-12.27 -6.84,-18.83 -8.27,-23.99 -34.29,-35.73 -54.43,-51.2 -20.15,-15.47 -36.1,-46.05 -19.07,-64.75 8.39,-9.23 23.26,-12.83 27.46,-24.82 5.27,-14.15 -9.71,-27.94 -21.7,-38.13 -19.91,-16.79 -23.51,-67.27 2.75,-81.18 11.04,-5.75 27.46,-8.75 29.86,-19.66 2.4,-10.91 -8.63,-19.31 -15.95,-27.7 -1.69,-2.17 -3.21,-4.48 -4.54,-6.89 -13.86,-25.18 -4.69,-56.83 20.49,-70.69 6.35,-2.88 14.03,-5.39 16.43,-11.99 0.9,-4.92 0.36,-10.01 -1.56,-14.63 -2.52,-9.16 -3.37,-18.71 -2.52,-28.17 0,-3.26 1.24,-6.39 3.48,-8.76 2.4,-1.72 5.32,-2.56 8.27,-2.4 9.31,-0.41 17.42,0.09 24.72,0.59 22.42,1.53 37.08,3.07 54.54,-21.81 2.02,-3.32 4.72,-6.18 7.91,-8.39 3.24,-1.62 6.81,-2.48 10.43,-2.52 26.02,-2.16 42.81,14.03 66.79,17.15 33.21,4.19 40.05,-12.84 69.19,-26.5 45.68,-21.59 67.86,-8.28 76.5,22.9 2.27,8.83 3.63,17.87 4.07,26.98 -0.2,13.74 5.63,26.89 15.95,35.97 h 0.72 c 24.34,-2.04 40.77,11.87 62.11,16.19 l 13.55,1.43 c 25.3,0.24 33.69,-14.98 59.95,-26.97 12.08,-6.37 25.44,-9.94 39.09,-10.43 3.84,-14.16 -10.07,-26.86 -22.06,-36.7 -19.79,-16.9 -23.38,-67.38 2.88,-81.17 10.91,-5.76 27.45,-9 29.85,-19.79 2.4,-10.79 -8.63,-19.3 -15.95,-27.58 -1.67,-2.15 -3.18,-4.43 -4.5,-6.82 -13.92,-25.22 -4.76,-56.95 20.45,-70.87 6.24,-3 14.03,-5.4 16.31,-11.99 1.01,-4.95 0.51,-10.09 -1.44,-14.75 -2.63,-9.11 -3.49,-18.63 -2.52,-28.06 -0.04,-3.28 1.16,-6.45 3.36,-8.87 2.47,-1.67 5.42,-2.47 8.39,-2.28 9.31,-0.41 17.43,0.09 24.73,0.58 22.41,1.54 37.07,3.07 54.53,-21.81 1.96,-3.36 4.67,-6.24 7.92,-8.39 3.25,-1.6 6.8,-2.5 10.42,-2.64 26.03,-2.15 42.81,14.15 66.79,17.15 33.1,4.2 40.05,-12.83 69.07,-26.5 45.8,-21.46 67.98,-8.27 76.62,22.9 2.28,8.87 3.64,17.95 4.07,27.1 3.36,56.12 56.84,47.24 102.52,54.8 3.23,0.25 6.07,2.22 7.44,5.15 h 2.87 c 26.03,-2.15 42.81,14.03 66.79,17.15 33.21,4.2 40.05,-12.83 69.19,-26.5 45.68,-21.58 67.86,-8.27 76.5,22.9 2.27,8.87 3.64,17.95 4.07,27.1 3,43.65 35.98,47.96 71.95,51.32 1.14,-17.27 11.11,-32.73 26.38,-40.89 6.35,-2.87 14.03,-5.39 16.42,-11.99 0.91,-4.92 0.37,-10 -1.55,-14.62 -2.51,-9.13 -3.37,-18.64 -2.52,-28.06 -0.05,-3.28 1.15,-6.45 3.35,-8.88 2.48,-1.65 5.42,-2.48 8.4,-2.39 9.3,-0.41 17.42,0.08 24.72,0.58 22.42,1.53 37.08,3.07 54.53,-21.81 2.03,-3.32 4.72,-6.18 7.92,-8.39 3.24,-1.62 6.81,-2.48 10.43,-2.52 26.02,-2.16 42.81,14.03 66.79,17.15 33.21,4.19 40.05,-12.83 69.18,-26.5 45.69,-21.58 67.87,-8.27 76.5,22.9 2.27,8.83 3.64,17.87 4.08,26.98 3.36,56.24 56.95,47.24 102.52,54.92 35.61,5.87 -58.88,95.92 13.07,124.94 13.93,3.83 26.16,12.28 34.65,23.98 6.63,17.41 0.61,37.11 -14.63,47.84"
         style="fill:#dadbd8;fill-opacity:1;fill-rule:nonzero;stroke:none"
         id="path30" />
      <path
         d="m 1738.71,2504.97 c -13.65,8.29 -29.48,12.27 -45.43,11.41 -9.77,11.93 -1.78,29.69 7.61,41.88 9.39,12.18 21.07,25.37 17.39,40.85 -5.33,22.59 -36.93,23.35 -59.64,18.91 -8.5,13.7 -8.25,30.71 -12.69,46.19 -4.44,15.47 -16.49,31.72 -32.35,29.81 -15.86,-1.9 -24.11,-18.78 -38.83,-22.2 -17,-4.06 -31.85,11.04 -45.17,22.33 -13.32,11.29 -36.8,18.4 -46.06,3.55 -5.46,-8.88 -2.16,-21.44 -7.87,-30.2 -10.02,-15.22 -33.49,-5.71 -48.21,5.08 -14.72,10.78 -38.07,20.55 -48.22,5.58 -2.56,-4.94 -4.48,-10.18 -5.71,-15.6 -6.85,-20.05 -28.42,-29.95 -45.3,-42.76 -16.87,-12.82 -30.2,-38.07 -15.86,-53.93 6.98,-7.74 19.29,-10.91 22.84,-20.68 4.31,-12.69 -8.25,-23.35 -18.14,-31.73 -16.5,-14.08 -19.54,-56.21 2.28,-67.62 9.26,-4.83 22.71,-6.35 25.38,-16.5 2.66,-10.15 -7.11,-16.11 -12.69,-23.09 -14.69,-18.94 -11.24,-46.2 7.7,-60.89 1.77,-1.37 3.65,-2.61 5.62,-3.7 5.2,-2.53 11.67,-4.56 13.58,-10.15 0.94,-4.25 0.5,-8.7 -1.27,-12.69 -2.12,-7.59 -2.81,-15.5 -2.03,-23.34 -0.06,-2.72 0.95,-5.36 2.79,-7.36 2.03,-1.45 4.49,-2.16 6.98,-2.03 7.73,-0.34 14.48,0.07 20.55,0.49 18.64,1.27 30.88,2.54 45.43,-18.13 1.68,-2.76 3.93,-5.14 6.6,-6.98 2.72,-1.35 5.71,-2.09 8.75,-2.16 21.7,-1.77 35.78,11.68 55.7,14.22 27.41,3.55 33.25,-10.66 57.49,-22.08 38.06,-17.89 56.71,-6.85 63.44,19.16 1.88,7.35 3.03,14.87 3.42,22.46 2.79,46.82 47.46,39.46 85.4,45.8 29.69,4.95 -48.85,79.81 10.91,104.05 11.7,3.15 21.93,10.28 28.93,20.17 6.44,15.34 0.79,33.08 -13.32,41.88"
         style="fill:#dadbd8;fill-opacity:1;fill-rule:nonzero;stroke:none"
         id="path32" />
      <path
         d="m 2318.91,2763.67 48.9,155.07 95.19,122.44 -16.26,13.57 -89.81,-97.89 -15.96,155.06 h -26 c 0,0 21.36,-184.23 -9.38,-251.68 0,0 -111.61,-283.96 -179.56,-345.43 -3.85,-3.57 -7.21,-7.63 -9.98,-12.08 -20.38,52.27 -46.87,101.95 -78.93,147.99 26.84,68.65 84.42,219.52 103.98,300.25 15.33,62.71 26.83,126.29 34.42,190.39 l -22.26,2.45 c 0,0 -63.15,-298.21 -167.53,-433.92 -30.92,28.41 -65.98,51.96 -103.98,69.85 -8.48,41.91 -12.07,114.85 15.67,228.71 l -22.06,5.63 c 0,0 -42.1,-96.34 -38.41,-211.99 -15.7,7.89 -30.84,16.86 -45.3,26.84 -100.59,70.75 -171.33,198.58 -171.33,198.58 l -20.59,-20.04 c 0,0 85.84,-188.52 205.49,-251.48 119.64,-62.97 197.17,-216.43 203.36,-256.65 1.7,-11.47 15.52,-102.59 -3.64,-262.22 -127.31,54.3 -379.58,203.87 -396.35,217.64 l -29.36,-39.49 408.15,-292.05 c 6.38,-389.16 -23.03,-794.06 -21.93,-881.68 h 237.68 c -5.85,120.85 -55.93,575.29 -33.69,1050.25 1.89,11.67 3.89,25.04 5.78,40.61 18.56,145.69 129.12,344.74 181.71,401.34 56.36,60.65 118.99,108.73 118.99,108.73 l -14.46,31.01 -142.55,-109.81"
         style="fill:#e2e2e0;fill-opacity:1;fill-rule:nonzero;stroke:none"
         id="path34" />
      <path
         d="m 4200.25,3966.6 c 0,31.1 -25.21,56.3 -56.3,56.3 -5.46,0.03 -10.89,-0.78 -16.1,-2.4 0.8,5.73 1.21,11.52 1.2,17.3 0,65.83 -53.37,119.2 -119.2,119.2 -7.35,0 -14.68,-0.67 -21.9,-2 -29.92,49.16 -94.02,64.76 -143.18,34.84 -30.62,-18.64 -49.51,-51.7 -50.02,-87.54 h -1.8 c -53.05,-1.71 -94.66,-46.1 -92.95,-99.15 1.63,-50.64 42.31,-91.31 92.95,-92.95 h 352.6 c 30.53,0.82 54.82,25.86 54.7,56.4"
         style="fill:#ededeb;fill-opacity:1;fill-rule:nonzero;stroke:none"
         id="path36" />
      <path
         d="m 5105.83,3407.34 c 0,28.85 -23.38,52.23 -52.23,52.23 -5.06,0.03 -10.1,-0.72 -14.94,-2.22 0.75,5.32 1.12,10.68 1.12,16.05 0,61.08 -49.52,110.59 -110.59,110.59 -6.82,-0.01 -13.62,-0.63 -20.32,-1.86 -27.76,45.61 -87.23,60.08 -132.84,32.32 -28.41,-17.29 -45.93,-47.96 -46.4,-81.21 h -1.67 c -49.22,-1.59 -87.83,-42.77 -86.24,-91.99 1.52,-46.98 39.25,-84.72 86.24,-86.23 h 327.12 c 28.33,0.75 50.86,23.99 50.75,52.32"
         style="fill:#dadbd8;fill-opacity:1;fill-rule:nonzero;stroke:none"
         id="path38" />
      <path
         d="m 2106.06,4144.48 c 0,17.34 -14.06,31.4 -31.41,31.4 -3.04,0.02 -6.07,-0.43 -8.98,-1.33 0.45,3.19 0.68,6.41 0.67,9.65 0,36.71 -29.76,66.48 -66.49,66.48 -4.09,0 -8.18,-0.37 -12.21,-1.11 -16.69,27.42 -52.45,36.12 -79.87,19.43 -17.08,-10.39 -27.61,-28.84 -27.9,-48.83 h -1 c -29.59,-0.95 -52.8,-25.71 -51.85,-55.3 0.92,-28.25 23.6,-50.94 51.85,-51.85 h 196.68 c 17.03,0.46 30.57,14.43 30.51,31.46"
         style="fill:#ededeb;fill-opacity:1;fill-rule:nonzero;stroke:none"
         id="path40" />
      <path
         d="m 6669.69,3969.12 c 0,30.24 -24.51,54.74 -54.74,54.74 -5.31,0.03 -10.59,-0.76 -15.66,-2.33 0.78,5.57 1.17,11.19 1.17,16.82 0,64.01 -51.89,115.9 -115.9,115.9 -7.14,0 -14.27,-0.66 -21.29,-1.95 -29.09,47.8 -91.42,62.97 -139.22,33.88 -29.77,-18.12 -48.14,-50.27 -48.63,-85.12 h -1.75 c -51.58,-1.66 -92.04,-44.82 -90.38,-96.4 1.59,-49.24 41.14,-88.78 90.38,-90.37 h 342.83 c 29.68,0.78 53.3,25.14 53.19,54.83"
         style="fill:#ededeb;fill-opacity:1;fill-rule:nonzero;stroke:none"
         id="path42" />
      <path
         d="m 3726.42,3303.96 c 0,34.19 -27.71,61.9 -61.89,61.9 -6,0.02 -11.97,-0.87 -17.7,-2.64 0.89,6.3 1.33,12.66 1.32,19.01 0,72.37 -58.67,131.04 -131.03,131.04 -8.08,0 -16.14,-0.74 -24.08,-2.2 -32.89,54.04 -103.36,71.18 -157.4,38.3 -33.66,-20.49 -54.42,-56.83 -54.98,-96.23 h -1.98 c -58.31,-1.88 -104.06,-50.68 -102.17,-109 1.79,-55.67 46.5,-100.38 102.17,-102.17 h 387.61 c 33.56,0.89 60.26,28.43 60.13,61.99"
         style="fill:#dadbd8;fill-opacity:1;fill-rule:nonzero;stroke:none"
         id="path44" />
      <path
         d="m 6129.18,1244.8 h 64.51 v 2302.29 c -0.1,115.65 -93.83,209.38 -209.49,209.48 h -56.95 v -64.51 h 56.95 c 80.03,-0.1 144.88,-64.95 144.98,-144.97 V 1244.8"
         style="fill:#dadbd8;fill-opacity:1;fill-rule:nonzero;stroke:none"
         id="path46" />
      <path
         d="m 5514.26,3677.59 h 464.41 l -10.59,70.05 c -3.55,23.5 -22.02,41.93 -45.53,45.43 -30.6,4.52 -70.69,9.96 -89.5,10.32 -54.83,1.2 -190.41,-12.99 -256.58,-20.46 -22.4,-2.61 -40.79,-18.91 -46.08,-40.82 l -16.13,-64.52"
         style="fill:#e7e8e5;fill-opacity:1;fill-rule:nonzero;stroke:none"
         id="path48" />
      <path
         d="m 5563.38,3628.56 h 366.26 c 27.08,0 49.03,21.95 49.03,49.03 h -464.41 c 0.05,-27.09 22.03,-49.03 49.12,-49.03"
         style="fill:#f3f2f1;fill-opacity:1;fill-rule:nonzero;stroke:none"
         id="path50" />
      <path
         d="m 5821.44,3526.66 87.1,-205.48"
         style="fill:#ffffff;fill-opacity:1;fill-rule:nonzero;stroke:none"
         id="path52" />
      <path
         d="m 5819.14,3525.68 87.09,-205.47 c 0.54,-1.27 2.01,-1.87 3.28,-1.33 1.27,0.54 1.87,2.01 1.33,3.28 l -87.1,205.47 c -0.54,1.28 -2.01,1.87 -3.28,1.33 -1.27,-0.54 -1.86,-2.01 -1.32,-3.28"
         style="fill:#dadbd8;fill-opacity:1;fill-rule:nonzero;stroke:none"
         id="path54" />
      <path
         d="m 5733.59,3526.66 c 0,-118.53 -7.26,-217.19 -7.26,-335.93 0,-1.38 1.12,-2.5 2.5,-2.5 1.38,0 2.5,1.12 2.5,2.5 0,118.52 7.26,217.18 7.26,335.93 0,1.38 -1.12,2.5 -2.5,2.5 -1.38,0 -2.5,-1.12 -2.5,-2.5"
         style="fill:#dadbd8;fill-opacity:1;fill-rule:nonzero;stroke:none"
         id="path56" />
      <path
         d="M 5661.47,3537.25 5534.36,3370.2 c -0.83,-1.1 -0.62,-2.67 0.48,-3.51 1.1,-0.83 2.67,-0.62 3.5,0.48 l 127.11,167.05 c 0.84,1.1 0.62,2.67 -0.48,3.51 -1.09,0.83 -2.66,0.62 -3.5,-0.48"
         style="fill:#dadbd8;fill-opacity:1;fill-rule:nonzero;stroke:none"
         id="path58" />
      <path
         d="M 6376,61.3203 C 6376,27.4492 5200.3,0 3750,0 2299.7,0 1124,27.4492 1124,61.3203 c 0,33.8711 1175.7,61.3207 2626,61.3207 1450.3,0 2626,-27.4496 2626,-61.3207"
         style="fill:#f3f2f1;fill-opacity:1;fill-rule:nonzero;stroke:none"
         id="path60" />
      <path
         d="M 1566.24,1425.52 H 657.695 c -94.027,0 -170.254,76.22 -170.254,170.25 v 2112.62 c 0,72.55 58.813,131.36 131.364,131.36 h 986.325 c 72.55,0 131.36,-58.81 131.36,-131.36 V 1595.77 c 0,-94.03 -76.22,-170.25 -170.25,-170.25"
         style="fill:#17282f;fill-opacity:1;fill-rule:nonzero;stroke:none"
         id="path62" />
      <path
         d="m 1370.88,3785.59 -19.99,-39.5 H 862.137 l -29.071,39.5 H 602.027 c -36.968,0 -66.937,-29.62 -66.937,-66.15 v -2129.7 c 0,-55.2 45.281,-99.95 101.14,-99.95 h 951.47 c 55.86,0 101.14,44.75 101.14,99.95 v 2129.7 c 0,36.53 -29.96,66.15 -66.93,66.15 h -251.03"
         style="fill:#406fbf;fill-opacity:1;fill-rule:nonzero;stroke:none"
         id="path64" />
      <path
         d="m 1111.4,3789.35 c 0,-11.1 -9,-20.1 -20.1,-20.1 -11.1,0 -20.1,9 -20.1,20.1 0,11.1 9,20.1 20.1,20.1 11.1,0 20.1,-9 20.1,-20.1"
         style="fill:#ffffff;fill-opacity:1;fill-rule:nonzero;stroke:none"
         id="path66" />
      <path
         d="m 1141.07,3789.35 c 0,-5.55 -4.49,-10.05 -10.04,-10.05 -5.55,0 -10.05,4.5 -10.05,10.05 0,5.55 4.5,10.05 10.05,10.05 5.55,0 10.04,-4.5 10.04,-10.05"
         style="fill:#ffffff;fill-opacity:1;fill-rule:nonzero;stroke:none"
         id="path68" />
      <path
         d="m 1621.91,3785.59 h -251.03 l -19.99,-39.5 H 862.141 l -29.075,39.5 H 602.027 c -36.968,0 -66.937,-29.62 -66.937,-66.15 v -544.89 h 1153.75 v 544.89 c 0,36.53 -29.96,66.15 -66.93,66.15"
         style="fill:#406fbf;fill-opacity:1;fill-rule:nonzero;stroke:none"
         id="path70" />
      <path
         d="m 720.543,3715.95 h 15.2539 v 20.3398 H 720.543 Z"
         style="fill:#a4c3e9;fill-opacity:1;fill-rule:nonzero;stroke:none"
         id="path72" />
      <path
         d="m 695.582,3715.95 h 15.2539 v 27.1172 H 695.582 Z"
         style="fill:#a4c3e9;fill-opacity:1;fill-rule:nonzero;stroke:none"
         id="path74" />
      <path
         d="m 670.777,3715.95 h 15.25 v 33.8984 h -15.25 z"
         style="fill:#a4c3e9;fill-opacity:1;fill-rule:nonzero;stroke:none"
         id="path76" />
      <path
         d="m 645.969,3715.87 h 15.2539 v 40.6758 H 645.969 Z"
         style="fill:#a4c3e9;fill-opacity:1;fill-rule:nonzero;stroke:none"
         id="path78" />
      <path
         d="m 1530.29,3723.34 h 9.0117 v 20.3398 h -9.0117 z"
         style="fill:#a4c3e9;fill-opacity:1;fill-rule:nonzero;stroke:none"
         id="path80" />
      <path
         d="m 1545.54,3715.87 h 72.0391 v 35.207 H 1545.54 Z"
         style="fill:#a4c3e9;fill-opacity:1;fill-rule:nonzero;stroke:none"
         id="path82" />
      <path
         d="m 1011.81,1789.57 -83.122,52.4 v 177.81 l 452.772,-128.32 c -21.26,-4.51 -42.19,-9.18 -62.84,-14.01 l -61.47,16.14 c -2.74,-8.1 -7,-20.31 -11.91,-34.23 -13.51,-3.5 -26.89,-7.07 -40.08,-10.66 9.4,26.56 17.51,50.57 17.51,54.24 l -193.31,50.83 -27.43,-91.68 89.35,-46.68 c -27.5,-8.57 -54.01,-17.21 -79.47,-25.84"
         style="fill:#7da6dd;fill-opacity:1;fill-rule:nonzero;stroke:none"
         id="path84" />
      <path
         d="m 536.402,1559.96 v 0 13.63 c 0.161,-0.98 0.336,-1.94 0.524,-2.91 l -0.524,-10.72"
         style="fill:#6c7a7f;fill-opacity:1;fill-rule:nonzero;stroke:none"
         id="path86" />
      <path
         d="m 536.926,1570.68 c -0.188,0.97 -0.363,1.93 -0.524,2.91 V 3174.55 H 715.68 l 29.578,-7.5 -169.352,-298.27 397.317,-93.45 -47.188,-87.19 -389.633,97.69 v -63.89 l 359.09,-90.01 -116.219,-215.05 -183.523,51.54 -59.348,-37.33 v -74.13 l 69.68,44.12 142.926,-40.06 -212.606,-393.22 v -133.42 l 139.082,257.14 189.196,-53.65 v -234.73 l 66.504,-42.02 c -52.301,-19.2 -98.555,-37.64 -137.75,-54.07 18.05,122.98 41.132,278.95 42.625,282.46 L 686,2020.84 543.445,1704.22 536.926,1570.68 m 143.496,1075.64 -56.418,-124.43 150.332,-50.21 63.184,129.98 -157.098,44.66 m -144.02,519.67 v -326.33 l 143.93,290.24 -143.93,36.09"
         style="fill:#7da6dd;fill-opacity:1;fill-rule:nonzero;stroke:none"
         id="path88" />
      <path
         d="M 715.68,3174.55 H 536.402 v 91.24 h 0.184 V 3220 l 179.094,-45.45"
         style="fill:#7da6dd;fill-opacity:1;fill-rule:nonzero;stroke:none"
         id="path90" />
      <path
         d="m 1518.74,1917.16 -57.04,16.23 69.32,368.42 157.37,-39.77 v -114.57 l -141.65,27 -36.21,-184.96 177.86,-37.41 v -12.9 c -57.76,-5.59 -114.43,-13.09 -169.65,-22.04 m -118.85,33.44 -694.23,196.78 194.406,359.6 74.434,-79.42 233.82,-44.12 260.15,-65.92 -68.58,-366.92 m -312.82,405.3 c 0,0 -72.15,-214.61 -75.44,-217.25 l 355.98,-126.46 56.05,286.53 -336.59,57.18 m -256.59,-94.6 c 0,0 -56.144,-85.06 -56.144,-92.03 0,-6.97 106.894,-30.62 106.894,-30.62 l 50.75,90.36 -101.5,32.29 m 857.91,64.54 -425.39,107.63 188.92,351.39 236.47,218.49 v -677.51 m -68.95,69.51 v 0 l -27.43,236.94 -155.45,46.68 c 0,0 -104.89,-209.5 -106.72,-215.41 l 289.6,-68.21 m 31.03,461.94 -146.96,-77.59 -28.87,-58.79 162.8,-41.94 13.03,178.32 m -452.12,-409.17 -190.29,36.09 -76.173,81.54 169.353,313.18 278.71,-92.83 -181.6,-337.98 m -85.95,393.13 -111.93,-221.67 220.56,-68.39 108.63,219.37 -217.26,70.69 m -108.55,-9.53 -331.748,78.09 137.164,240.74 322.604,-82.25 -128.02,-236.58 m -159.287,258.47 -77.454,-135.46 217.082,-68.04 70.499,144.64 -210.127,58.86 m 572.877,-251.24 -286.21,95.31 129.94,240.29 h 43.74 l -13.66,-25.59 c 18.35,-9 36.92,-17.68 55.69,-26.03 73.98,-33.18 149.97,-61.78 226.96,-88.25 l 114.49,114.72 v -60.62 l -270.95,-249.83 m -142.46,279.83 -91.44,-170.58 234,-69.27 129.11,129.01 c -92.79,31.62 -183.52,68.63 -271.67,110.84"
         style="fill:#7da6dd;fill-opacity:1;fill-rule:nonzero;stroke:none"
         id="path92" />
      <path
         d="m 1304.91,3174.55 h -43.74 l 49.33,91.24 h 43.07 l -48.66,-91.24"
         style="fill:#7da6dd;fill-opacity:1;fill-rule:nonzero;stroke:none"
         id="path94" />
      <path
         d="m 1161.96,3124.69 -195.827,49.86 h 222.817 l -26.99,-49.86"
         style="fill:#7da6dd;fill-opacity:1;fill-rule:nonzero;stroke:none"
         id="path96" />
      <path
         d="M 1188.95,3174.55 H 966.133 l -358.332,91.24 h 152.254 c 112.316,-28.3 362.135,-89.41 377.605,-89.41 0.37,0 0.61,0.04 0.7,0.11 4.02,3.09 29.13,51.28 48.61,89.3 h 51.38 l -49.4,-91.24"
         style="fill:#7da6dd;fill-opacity:1;fill-rule:nonzero;stroke:none"
         id="path98" />
      <path
         d="m 1688.84,2261.92 -0.45,0.12 v 63.8 l 0.45,-0.12 v -63.8"
         style="fill:#3563b7;fill-opacity:1;fill-rule:nonzero;stroke:none"
         id="path100" />
      <path
         d="m 1310.5,3265.79 h -72.15 l 0.05,0.09 h 72.15 l -0.05,-0.09 m -702.699,0 h -71.215 v 0.09 h 70.867 l 0.348,-0.09"
         style="fill:#3563b7;fill-opacity:1;fill-rule:nonzero;stroke:none"
         id="path102" />
      <path
         d="m 931.184,1761.12 -66.504,42.02 v 234.73 l -189.196,53.65 -139.082,-257.14 v 133.42 l 212.606,393.22 -142.926,40.06 -69.68,-44.12 v 74.13 l 59.348,37.33 183.523,-51.54 116.219,215.05 -359.09,90.01 v 63.89 l 389.633,-97.69 47.188,87.19 -397.317,93.45 169.352,298.27 -29.578,7.5 h 250.453 l 195.827,-49.86 26.99,49.86 h 72.22 l -129.94,-240.29 286.21,-95.31 270.95,249.83 v -85.43 L 1451.92,2784.86 1263,2433.47 1688.39,2325.84 v -63.8 l -157.37,39.77 -69.32,-368.42 57.04,-16.23 c -46.88,-7.61 -92.72,-16.27 -137.28,-25.7 l -452.772,128.32 v -177.81 l 83.122,-52.4 c -28.208,-9.56 -55.158,-19.1 -80.626,-28.45 m -31.118,745.86 -194.406,-359.6 694.23,-196.78 68.58,366.92 -260.15,65.92 -233.82,44.12 -74.434,79.42 m 201.174,371.95 -169.353,-313.18 76.173,-81.54 190.29,-36.09 181.6,337.98 -278.71,92.83 m -291.974,271.62 -137.164,-240.74 331.748,-78.09 128.02,236.58 -322.604,82.25"
         style="fill:#6189ce;fill-opacity:1;fill-rule:nonzero;stroke:none"
         id="path104" />
      <path
         d="m 1261.17,3174.55 h -72.22 l 49.4,91.24 h 72.15 l -49.33,-91.24 m -295.037,0 H 715.68 L 536.586,3220 v 45.79 h 71.215 l 358.332,-91.24"
         style="fill:#6189ce;fill-opacity:1;fill-rule:nonzero;stroke:none"
         id="path106" />
      <path
         d="m 819.918,3361.04 c -23.703,-0.01 -42.941,19.19 -42.984,42.91 v 0.07 c 0,23.74 19.246,42.99 42.988,42.99 H 820 1488.38 c 23.74,-0.08 42.92,-19.4 42.84,-43.14 l -0.01,-0.23 c -0.21,-23.53 -19.3,-42.52 -42.83,-42.6 H 820 c -0.027,0 -0.055,0 -0.082,0"
         style="fill:#a4c3e9;fill-opacity:1;fill-rule:nonzero;stroke:none"
         id="path108" />
      <path
         d="m 711.762,3400.79 c -5.723,-5.72 -14.992,-5.7 -20.703,0.02 -5.707,5.72 -5.7,14.99 0.023,20.7 5.715,5.7 14.965,5.7 20.68,0 5.804,-5.69 5.906,-15 0.222,-20.81 l -0.222,-0.22 z m 12.941,33.66 v 0 c -12.875,12.86 -33.734,12.86 -46.609,0 -12.606,-12.82 -12.606,-33.39 0,-46.22 l 23.113,-23.11 23.109,23.11 c 12.715,12.72 12.887,33.29 0.387,46.22"
         style="fill:#ffffff;fill-opacity:1;fill-rule:nonzero;stroke:none"
         id="path110" />
      <path
         d="m 1423.66,1894.21 c -15.6,0 -28.25,12.21 -28.25,27.27 0,15.06 12.65,27.26 28.25,27.26 15.61,0 28.26,-12.2 28.26,-27.26 0,-15.06 -12.65,-27.27 -28.26,-27.27 z m 0,69.18 c -23.99,0 -43.43,-18.76 -43.43,-41.91 0,-23.15 19.44,-41.92 43.43,-41.92 23.99,0 43.44,18.77 43.44,41.92 0,23.15 -19.45,41.91 -43.44,41.91"
         style="fill:#ffffff;fill-opacity:1;fill-rule:nonzero;stroke:none"
         id="path112" />
      <path
         d="m 1440.85,1921.48 c 0,-9.17 -7.69,-16.59 -17.19,-16.59 -9.49,0 -17.19,7.42 -17.19,16.59 0,9.16 7.7,16.59 17.19,16.59 9.5,0 17.19,-7.43 17.19,-16.59"
         style="fill:#ffffff;fill-opacity:1;fill-rule:nonzero;stroke:none"
         id="path114" />
      <path
         d="m 1417.54,2878.93 -234,69.27 91.44,170.58 c 88.15,-42.21 178.88,-79.22 271.67,-110.84 l -129.11,-129.01"
         style="fill:#abcaec;fill-opacity:1;fill-rule:nonzero;stroke:none"
         id="path116" />
      <path
         d="m 1688.39,3174.55 v 0 91.24 h -334.82 l 0.05,0.09 h 334.77 v -91.33"
         style="fill:#7da6dd;fill-opacity:1;fill-rule:nonzero;stroke:none"
         id="path118" />
      <path
         d="m 1573.9,3034.68 c -76.99,26.47 -152.98,55.07 -226.96,88.25 -18.77,8.35 -37.34,17.03 -55.69,26.03 l 13.66,25.59 h 383.48 V 3149.4 L 1573.9,3034.68"
         style="fill:#abcaec;fill-opacity:1;fill-rule:nonzero;stroke:none"
         id="path120" />
      <path
         d="m 1688.39,3174.55 h -383.48 l 48.66,91.24 h 334.82 v -91.24"
         style="fill:#abcaec;fill-opacity:1;fill-rule:nonzero;stroke:none"
         id="path122" />
      <path
         d="m 1221.03,2551.19 -220.56,68.39 111.93,221.67 217.26,-70.69 -108.63,-219.37"
         style="fill:#abcaec;fill-opacity:1;fill-rule:nonzero;stroke:none"
         id="path124" />
      <path
         d="m 1619.44,2395.35 -289.6,68.21 c 1.83,5.91 106.72,215.41 106.72,215.41 l 155.45,-46.68 27.43,-236.94"
         style="fill:#abcaec;fill-opacity:1;fill-rule:nonzero;stroke:none"
         id="path126" />
      <path
         d="m 1637.44,2678.97 -162.8,41.94 28.87,58.79 146.96,77.59 -13.03,-178.32"
         style="fill:#abcaec;fill-opacity:1;fill-rule:nonzero;stroke:none"
         id="path128" />
      <path
         d="m 1367.61,2012.19 -355.98,126.46 c 3.29,2.64 75.44,217.25 75.44,217.25 l 336.59,-57.18 -56.05,-286.53"
         style="fill:#abcaec;fill-opacity:1;fill-rule:nonzero;stroke:none"
         id="path130" />
      <path
         d="m 881.23,2138.65 c 0,0 -106.894,23.65 -106.894,30.62 0,6.97 56.144,92.03 56.144,92.03 l 101.5,-32.29 -50.75,-90.36"
         style="fill:#abcaec;fill-opacity:1;fill-rule:nonzero;stroke:none"
         id="path132" />
      <path
         d="m 539.656,1559.96 h -3.254 l 0.524,10.72 c 0.715,-3.65 1.629,-7.23 2.73,-10.72"
         style="fill:#a4adaf;fill-opacity:1;fill-rule:nonzero;stroke:none"
         id="path134" />
      <path
         d="m 623.051,1559.96 h -83.395 c -1.101,3.49 -2.015,7.07 -2.73,10.72 l 6.519,133.54 142.555,316.62 150.059,-31.33 c -1.493,-3.51 -24.575,-159.48 -42.625,-282.46 -12.575,-5.28 -24.407,-10.34 -35.489,-15.15 -59.879,-26.14 -107.715,-73.25 -134.894,-131.94"
         style="fill:#abcaec;fill-opacity:1;fill-rule:nonzero;stroke:none"
         id="path136" />
      <path
         d="m 1245.24,1859.36 c 4.91,13.92 9.17,26.13 11.91,34.23 l 61.47,-16.14 c -24.93,-5.83 -49.41,-11.88 -73.38,-18.09"
         style="fill:#abcaec;fill-opacity:1;fill-rule:nonzero;stroke:none"
         id="path138" />
      <path
         d="m 1091.28,1815.41 -89.35,46.68 27.43,91.68 193.31,-50.83 c 0,-3.67 -8.11,-27.68 -17.51,-54.24 -39.53,-10.79 -77.55,-21.97 -113.88,-33.29"
         style="fill:#abcaec;fill-opacity:1;fill-rule:nonzero;stroke:none"
         id="path140" />
      <path
         d="m 1688.39,1952.1 -177.86,37.41 36.21,184.96 141.65,-27 V 1952.1"
         style="fill:#abcaec;fill-opacity:1;fill-rule:nonzero;stroke:none"
         id="path142" />
      <path
         d="m 774.336,2471.68 -150.332,50.21 56.418,124.43 157.098,-44.66 -63.184,-129.98"
         style="fill:#abcaec;fill-opacity:1;fill-rule:nonzero;stroke:none"
         id="path144" />
      <path
         d="m 984.191,2886.69 -217.082,68.04 77.454,135.46 210.127,-58.86 -70.499,-144.64"
         style="fill:#abcaec;fill-opacity:1;fill-rule:nonzero;stroke:none"
         id="path146" />
      <path
         d="M 1186.97,3265.79 H 760.055 c -0.121,0.03 -0.231,0.06 -0.352,0.09 h 427.307 c -0.01,-0.03 -0.03,-0.06 -0.04,-0.09"
         style="fill:#7da6dd;fill-opacity:1;fill-rule:nonzero;stroke:none"
         id="path148" />
      <path
         d="m 1137.66,3176.38 c -15.47,0 -265.289,61.11 -377.605,89.41 h 426.915 c -19.48,-38.02 -44.59,-86.21 -48.61,-89.3 -0.09,-0.07 -0.33,-0.11 -0.7,-0.11"
         style="fill:#abcaec;fill-opacity:1;fill-rule:nonzero;stroke:none"
         id="path150" />
      <path
         d="m 536.402,2839.66 v 326.33 l 143.93,-36.09 -143.93,-290.24"
         style="fill:#abcaec;fill-opacity:1;fill-rule:nonzero;stroke:none"
         id="path152" />
      <path
         d="m 1440.95,1971.86 h -1.65 c -4.93,0.86 -8.24,5.38 -7.41,10.15 l 62.55,348.48 c -44.26,13.06 -273.5,79.42 -495.159,115.6 -1.992,0.3 -3.824,1.23 -5.211,2.65 l -105.433,110.39 c -2.598,2.7 -3.184,6.68 -1.461,9.97 l 122.344,227.32 -387.161,84.54 c -4.921,1.09 -7.996,5.83 -6.863,10.58 l 0.918,2.3 130.215,229.44 c 2.523,4.29 8.172,5.79 12.617,3.35 4.445,-2.43 6,-7.89 3.477,-12.18 l -124.821,-219.2 386.888,-84.53 c 4.93,-1.06 8.05,-5.77 6.96,-10.53 l -0.83,-2.18 -124.908,-231.82 99.028,-103.33 c 245.8,-40.24 499.64,-117.19 502.2,-117.99 4.33,-1.34 6.98,-5.55 6.22,-9.88 l -63.55,-355.71 c -0.72,-4.25 -4.5,-7.39 -8.96,-7.42"
         style="fill:#ffffff;fill-opacity:1;fill-rule:nonzero;stroke:none"
         id="path154" />
      <path
         d="m 776.543,3186.56 c -8.699,-8.7 -22.805,-8.71 -31.508,-0.01 -8.703,8.7 -8.711,22.8 -0.012,31.5 8.696,8.71 22.801,8.71 31.504,0.02 l 0.016,-0.02 c 8.687,-8.69 8.687,-22.79 0,-31.49 z m 19.594,50.74 v 0 c -19.324,19.49 -50.782,19.62 -70.27,0.3 l -0.297,-0.3 c -19.148,-19.4 -19.148,-50.59 0,-69.98 l 34.993,-34.99 34.992,34.99 c 19.312,19.24 19.57,50.42 0.582,69.98"
         style="fill:#ffffff;fill-opacity:1;fill-rule:nonzero;stroke:none"
         id="path156" />
      <path
         d="M 1353.58,3002.82 H 933.426 c -20.793,0 -37.653,16.86 -37.653,37.66 v 143.02 c 0,20.8 16.86,37.66 37.653,37.66 h 420.154 c 20.79,0 37.65,-16.86 37.65,-37.66 v -143.02 c 0,-20.8 -16.86,-37.66 -37.65,-37.66"
         style="fill:#ffffff;fill-opacity:1;fill-rule:nonzero;stroke:none"
         id="path158" />
      <path
         d="m 1011.94,3115.4 c 16.63,0 30.1,13.48 30.1,30.1 0,16.63 -13.47,30.1 -30.1,30.1 -16.624,0 -30.1,-13.47 -30.1,-30.1 0,-16.62 13.476,-30.1 30.1,-30.1"
         style="fill:#406fbf;fill-opacity:1;fill-rule:nonzero;stroke:none"
         id="path160" />
      <path
         d="m 1011.94,3111.9 c -26.549,0 -48.077,-21.53 -48.077,-48.08 h 96.157 c 0,26.55 -21.52,48.08 -48.08,48.08"
         style="fill:#406fbf;fill-opacity:1;fill-rule:nonzero;stroke:none"
         id="path162" />
      <path
         d="m 1146.41,3115.4 c 16.63,0 30.1,13.48 30.1,30.1 0,16.63 -13.47,30.1 -30.1,30.1 -16.62,0 -30.1,-13.47 -30.1,-30.1 0,-16.62 13.48,-30.1 30.1,-30.1"
         style="fill:#406fbf;fill-opacity:1;fill-rule:nonzero;stroke:none"
         id="path164" />
      <path
         d="m 1146.41,3111.9 c -26.55,0 -48.08,-21.53 -48.08,-48.08 h 96.16 c 0,26.55 -21.52,48.08 -48.08,48.08"
         style="fill:#406fbf;fill-opacity:1;fill-rule:nonzero;stroke:none"
         id="path166" />
      <path
         d="m 1280.89,3115.4 v -2.5 c 18,0 32.59,14.6 32.6,32.6 -0.01,18.01 -14.6,32.6 -32.6,32.6 -18.01,0 -32.6,-14.59 -32.61,-32.6 0.01,-18 14.6,-32.6 32.61,-32.6 v 2.5 2.5 c -15.25,0.03 -27.58,12.36 -27.61,27.6 0.03,15.25 12.36,27.58 27.61,27.6 15.24,-0.02 27.57,-12.35 27.6,-27.6 -0.03,-15.24 -12.36,-27.57 -27.6,-27.6 v -2.5"
         style="fill:#406fbf;fill-opacity:1;fill-rule:nonzero;stroke:none"
         id="path168" />
      <path
         d="m 1280.89,3111.9 v 2.5 c -27.94,0 -50.58,-22.64 -50.58,-50.58 v -2.5 h 101.15 v 2.5 c 0,27.94 -22.64,50.58 -50.57,50.58 v -2.5 -2.5 c 12.59,0 23.97,-5.1 32.22,-13.35 8.26,-8.26 13.35,-19.64 13.35,-32.23 h 2.5 v 2.5 h -96.15 v -2.5 h 2.5 c 0,12.59 5.09,23.97 13.35,32.23 8.25,8.25 19.63,13.35 32.23,13.35 v 2.5"
         style="fill:#406fbf;fill-opacity:1;fill-rule:nonzero;stroke:none"
         id="path170" />
      <path
         d="m 918.816,3221.16 h -86.242 c 0,0 72.239,-58.05 73.891,-58.05 1.648,0 12.351,58.05 12.351,58.05"
         style="fill:#ffffff;fill-opacity:1;fill-rule:nonzero;stroke:none"
         id="path172" />
      <path
         d="m 3991.95,3092.48 c 98.94,0 178.61,82.48 174.02,182.43 -4.09,88.72 -77.08,161.71 -165.8,165.79 -99.95,4.6 -182.43,-75.07 -182.43,-174.02 v -0.04 c 0.19,-96.07 78.13,-173.85 174.21,-173.85 z m -265.36,439.64 c 149.29,143.73 386.83,139.23 530.56,-10.06 139.86,-145.27 139.9,-375.11 0.07,-520.42 l -211.96,-211.99 c -29.42,-29.43 -77.13,-29.43 -106.55,0 l -212.12,212.11 c -146.36,146.49 -146.36,383.87 0,530.36"
         style="fill:#406fbf;fill-opacity:1;fill-rule:nonzero;stroke:none"
         id="path174" />
      <path
         d="m 4358.03,3178.74 h 1597.64 v -363.33 h 10 v 373.33 H 4358.03 v -10"
         style="fill:#406fbf;fill-opacity:1;fill-rule:nonzero;stroke:none"
         id="path176" />
      <path
         d="m 6000.55,2835.95 c 0,-22.03 -17.85,-39.89 -39.88,-39.89 -22.03,0 -39.89,17.86 -39.89,39.89 0,22.02 17.86,39.88 39.89,39.88 22.03,0 39.88,-17.86 39.88,-39.88"
         style="fill:#406fbf;fill-opacity:1;fill-rule:nonzero;stroke:none"
         id="path178" />
      <path
         d="m 7159.12,3339.23 c 72.97,-83.57 64.39,-210.47 -19.17,-283.45 -83.57,-72.98 -210.47,-64.39 -283.45,19.17 -72.98,83.57 -64.4,210.48 19.17,283.45 83.57,72.98 210.47,64.4 283.45,-19.17"
         style="fill:#406fbf;fill-opacity:1;fill-rule:nonzero;stroke:none"
         id="path180" />
      <path
         d="m 6873.39,3123.62 -51.39,5.79 -21.15,-61.72 64.1,3.22 8.44,52.71"
         style="fill:#406fbf;fill-opacity:1;fill-rule:nonzero;stroke:none"
         id="path182" />
      <path
         d="m 7169.59,3384.11 c 49.64,-35.64 80.37,-96.31 80.35,-157.36 0,-3.3 -0.09,-6.59 -0.27,-9.89 -0.07,-1.38 0.98,-2.56 2.36,-2.63 1.38,-0.08 2.56,0.98 2.64,2.36 0.18,3.38 0.27,6.77 0.27,10.16 -0.01,62.72 -31.42,124.76 -82.44,161.42 -1.12,0.81 -2.68,0.55 -3.48,-0.57 -0.81,-1.12 -0.55,-2.68 0.57,-3.49"
         style="fill:#406fbf;fill-opacity:1;fill-rule:nonzero;stroke:none"
         id="path184" />
      <path
         d="m 7246.97,3186.82 0.02,-1.34 c 0,-9.17 -1.83,-18.34 -5.34,-26.81 -0.53,-1.27 0.08,-2.74 1.35,-3.26 1.28,-0.53 2.74,0.07 3.27,1.35 3.77,9.08 5.72,18.89 5.72,28.72 l -0.02,1.44 c -0.02,1.38 -1.17,2.48 -2.55,2.45 -1.38,-0.03 -2.47,-1.17 -2.45,-2.55"
         style="fill:#406fbf;fill-opacity:1;fill-rule:nonzero;stroke:none"
         id="path186" />
      <path
         d="m 7012.84,3206.21 c 22.25,0 40.28,18.04 40.28,40.29 0,22.25 -18.03,40.28 -40.28,40.28 -22.25,0 -40.29,-18.03 -40.29,-40.28 0,-22.25 18.04,-40.29 40.29,-40.29"
         style="fill:#ffffff;fill-opacity:1;fill-rule:nonzero;stroke:none"
         id="path188" />
      <path
         d="m 7012.84,3201.52 c -35.54,0 -64.35,-28.81 -64.35,-64.35 h 128.7 c 0,35.54 -28.81,64.35 -64.35,64.35"
         style="fill:#ffffff;fill-opacity:1;fill-rule:nonzero;stroke:none"
         id="path190" />
      <path
         d="m 2935.15,2968.08 c 72.98,-83.56 64.39,-210.47 -19.17,-283.44 -83.57,-72.98 -210.47,-64.4 -283.45,19.17 -72.98,83.56 -64.4,210.47 19.17,283.45 83.57,72.97 210.47,64.39 283.45,-19.18"
         style="fill:#406fbf;fill-opacity:1;fill-rule:nonzero;stroke:none"
         id="path192" />
      <path
         d="m 2862.7,2699.71 -13.87,-49.83 57.58,-30.68 7,63.8 -50.71,16.71"
         style="fill:#406fbf;fill-opacity:1;fill-rule:nonzero;stroke:none"
         id="path194" />
      <path
         d="m 2945.62,3012.96 c 49.65,-35.64 80.37,-96.3 80.35,-157.36 0,-3.29 -0.09,-6.59 -0.27,-9.89 -0.07,-1.38 0.99,-2.55 2.36,-2.63 1.38,-0.08 2.56,0.98 2.64,2.36 0.18,3.39 0.27,6.77 0.27,10.16 -0.01,62.72 -31.42,124.76 -82.43,161.43 -1.13,0.8 -2.69,0.55 -3.49,-0.58 -0.81,-1.12 -0.55,-2.68 0.57,-3.49"
         style="fill:#406fbf;fill-opacity:1;fill-rule:nonzero;stroke:none"
         id="path196" />
      <path
         d="m 3023,2815.68 0.02,-1.35 c 0,-9.16 -1.83,-18.34 -5.34,-26.8 -0.53,-1.28 0.08,-2.74 1.36,-3.27 1.27,-0.53 2.73,0.08 3.26,1.35 3.77,9.08 5.72,18.9 5.72,28.72 l -0.02,1.44 c -0.02,1.38 -1.16,2.48 -2.54,2.45 -1.38,-0.02 -2.48,-1.16 -2.46,-2.54"
         style="fill:#406fbf;fill-opacity:1;fill-rule:nonzero;stroke:none"
         id="path198" />
      <path
         d="m 2783.84,2830.18 c 22.25,0 40.29,18.03 40.29,40.28 0,22.25 -18.04,40.29 -40.29,40.29 -22.25,0 -40.29,-18.04 -40.29,-40.29 0,-22.25 18.04,-40.28 40.29,-40.28"
         style="fill:#ffffff;fill-opacity:1;fill-rule:nonzero;stroke:none"
         id="path200" />
      <path
         d="m 2783.84,2825.49 c -35.54,0 -64.35,-28.81 -64.35,-64.35 h 128.7 c 0,35.54 -28.81,64.35 -64.35,64.35"
         style="fill:#ffffff;fill-opacity:1;fill-rule:nonzero;stroke:none"
         id="path202" />
      <path
         d="m 7057.97,644.031 98.47,77.539 c 62.78,-71.488 113.41,-142.691 151.66,-185.211 l -23.74,-55.738 -64.13,12.871 c 0,0 -68.08,72.957 -162.26,150.539"
         style="fill:#c8685a;fill-opacity:1;fill-rule:nonzero;stroke:none"
         id="path204" />
      <path
         d="m 7152.29,541.359 38.3,24.403 c 39.2,-19.832 47.02,-4.012 51.82,31.187 10.28,8.371 21.39,-2.469 24.48,-5.32 l 69.06,-62.457 c 5.84,-5.184 6.38,-14.102 1.21,-19.942 -0.92,-1.039 -1.99,-1.929 -3.17,-2.66 -33.82,-21.539 -49.82,-31.742 -91.92,-58.55 l -128.73,-82 c -35.09,-22.36 -64.89,8.371 -52.52,20.851 55.85,55.77 89.69,104.219 97.74,135.93 1.62,5.691 -3.79,5.73 -6.27,18.558"
         style="fill:#406fbf;fill-opacity:1;fill-rule:nonzero;stroke:none"
         id="path206" />
      <path
         d="m 7147.69,505.281 c 4.81,2.219 10.12,3.328 15.45,3.328 5.45,0 10.89,-1.168 15.79,-3.488 1.25,-0.59 2.74,-0.051 3.33,1.199 0.59,1.239 0.06,2.731 -1.19,3.321 -5.6,2.648 -11.77,3.968 -17.93,3.968 -6.02,0 -12.04,-1.25 -17.54,-3.789 -1.25,-0.57 -1.8,-2.058 -1.22,-3.308 0.57,-1.262 2.06,-1.813 3.31,-1.231"
         style="fill:#17282f;fill-opacity:1;fill-rule:nonzero;stroke:none"
         id="path208" />
      <path
         d="m 7138.68,481.23 c 4.81,2.211 10.13,3.329 15.45,3.329 5.45,0 10.9,-1.168 15.79,-3.489 1.25,-0.59 2.74,-0.058 3.33,1.192 0.59,1.25 0.06,2.738 -1.19,3.328 -5.6,2.648 -11.77,3.969 -17.93,3.969 -6.02,0 -12.04,-1.258 -17.54,-3.789 -1.25,-0.579 -1.8,-2.059 -1.22,-3.321 0.57,-1.25 2.06,-1.801 3.31,-1.219"
         style="fill:#17282f;fill-opacity:1;fill-rule:nonzero;stroke:none"
         id="path210" />
      <path
         d="m 7124.13,456.559 c 4.8,2.211 10.12,3.332 15.44,3.32 5.45,0.012 10.9,-1.16 15.8,-3.481 1.25,-0.589 2.74,-0.058 3.33,1.192 0.59,1.25 0.05,2.742 -1.19,3.332 -5.61,2.648 -11.78,3.957 -17.94,3.957 -6.02,0 -12.04,-1.25 -17.54,-3.777 -1.25,-0.582 -1.8,-2.063 -1.22,-3.321 0.58,-1.25 2.06,-1.801 3.32,-1.222"
         style="fill:#17282f;fill-opacity:1;fill-rule:nonzero;stroke:none"
         id="path212" />
      <path
         d="m 7104.52,361.422 c 0.01,0 0.01,0 0.02,0.008 -0.01,-0.008 -0.01,-0.008 -0.02,-0.008 m 0.19,0.078 c 2.83,1.16 5.71,2.648 8.63,4.52 l 128.73,82 c 0.5,0.308 0.99,0.628 1.47,0.929 -0.48,-0.301 -0.97,-0.621 -1.47,-0.929 l -128.73,-82.008 c -2.92,-1.864 -5.81,-3.352 -8.63,-4.512 m 232.55,147.852 c 0.01,0.007 0.01,0.007 0.01,0.007 0,0 0,0 -0.01,-0.007 m 0.11,0.128 c 0.01,0.008 0.01,0.008 0.01,0.008 0,0 0,0 -0.01,-0.008 m 0.11,0.129 c 0.01,0.012 0.01,0.012 0.01,0.012 0,0 0,0 -0.01,-0.012 m 0.11,0.141 v 0 0"
         style="fill:#ffffff;fill-opacity:1;fill-rule:nonzero;stroke:none"
         id="path214" />
      <path
         d="m 7088.32,358.102 c -8.63,0 -16.05,2.898 -21.39,7 5.37,3.359 262.44,164.339 265.09,167.617 l 5.02,-4.739 c 4.59,-5.101 4.91,-12.82 0.55,-18.23 v 0 c -0.03,-0.039 -0.06,-0.09 -0.1,-0.129 0,0 0,0 -0.01,-0.012 -0.03,-0.039 -0.06,-0.078 -0.1,-0.121 0,0 0,0 -0.01,-0.008 -0.03,-0.039 -0.06,-0.082 -0.1,-0.121 0,0 0,0 -0.01,-0.007 -0.03,-0.043 -0.07,-0.082 -0.1,-0.122 v 0 c -0.12,-0.128 -0.23,-0.25 -0.36,-0.378 -0.83,-0.883 -1.78,-1.641 -2.81,-2.282 -33.43,-21.289 -49.45,-31.5 -90.45,-57.621 -0.48,-0.301 -0.97,-0.621 -1.47,-0.929 l -128.73,-82 c -2.92,-1.872 -5.8,-3.36 -8.63,-4.52 -0.06,-0.031 -0.11,-0.051 -0.17,-0.07 -0.01,-0.008 -0.01,-0.008 -0.02,-0.008 -5.7,-2.32 -11.16,-3.32 -16.2,-3.32"
         style="fill:#b8d2ef;fill-opacity:1;fill-rule:nonzero;stroke:none"
         id="path216" />
      <path
         d="m 6477.28,646.84 152.57,-94.09 c -11.34,-114.461 -39.47,-218.5 -28.86,-274.691 l -49.23,-35.321 -67.06,69.91 c 0,0 5.76,204.84 -7.42,334.192"
         style="fill:#c8685a;fill-opacity:1;fill-rule:nonzero;stroke:none"
         id="path218" />
      <path
         d="m 6478.65,363.23 45.4,0.961 c 23.21,-37.293 38.11,-27.839 60.49,-0.242 13.13,1.813 17,-13.219 18.16,-17.258 l 26.59,-89.242 c 2.3,-7.449 -1.87,-15.359 -9.32,-17.66 -1.33,-0.418 -2.7,-0.629 -4.09,-0.629 -40.09,-0.859 -59.06,-1.262 -108.95,-2.32 l -152.6,-3.25 c -41.6,-0.879 -51.11,40.851 -34.06,45.101 76.69,18.661 130.77,42.5 154.11,65.418 4.33,4.02 -0.27,6.86 4.27,19.121"
         style="fill:#406fbf;fill-opacity:1;fill-rule:nonzero;stroke:none"
         id="path220" />
      <path
         d="m 6455.99,334.781 c 10.64,-1.211 20.73,-7.41 26.62,-16.351 0.76,-1.16 2.31,-1.469 3.46,-0.711 1.16,0.761 1.48,2.312 0.71,3.461 -6.75,10.218 -18.05,17.16 -30.22,18.57 -1.37,0.16 -2.61,-0.828 -2.77,-2.199 -0.15,-1.371 0.83,-2.61 2.2,-2.77"
         style="fill:#17282f;fill-opacity:1;fill-rule:nonzero;stroke:none"
         id="path222" />
      <path
         d="m 6435.81,318.898 c 10.64,-1.207 20.73,-7.41 26.61,-16.347 0.76,-1.16 2.31,-1.473 3.47,-0.711 1.15,0.762 1.47,2.308 0.71,3.461 -6.76,10.219 -18.06,17.16 -30.22,18.57 -1.38,0.16 -2.62,-0.832 -2.77,-2.199 -0.16,-1.371 0.82,-2.613 2.2,-2.774"
         style="fill:#17282f;fill-opacity:1;fill-rule:nonzero;stroke:none"
         id="path224" />
      <path
         d="m 6410.55,305.371 c 10.65,-1.211 20.73,-7.41 26.62,-16.351 0.76,-1.161 2.31,-1.469 3.47,-0.711 1.15,0.761 1.47,2.312 0.71,3.461 -6.76,10.218 -18.06,17.16 -30.23,18.57 -1.37,0.16 -2.61,-0.828 -2.76,-2.199 -0.16,-1.371 0.82,-2.61 2.19,-2.77"
         style="fill:#17282f;fill-opacity:1;fill-rule:nonzero;stroke:none"
         id="path226" />
      <path
         d="m 6353.03,233.578 c -0.04,0 -0.09,0 -0.13,0 0.04,0 0.09,0 0.13,0 0.43,0 0.86,0 1.3,0.012 l 152.6,3.25 c 6.72,0.14 12.88,0.269 18.61,0.39 -5.73,-0.121 -11.89,-0.25 -18.61,-0.39 l -152.6,-3.25 c -0.44,-0.012 -0.87,-0.012 -1.3,-0.012 m -0.24,0 c -0.05,0 -0.09,0 -0.14,0 0.05,0 0.09,0 0.14,0 m -0.25,0 c -0.04,0 -0.08,0 -0.13,0 0.05,0 0.09,0 0.13,0 m -0.24,0 c -0.04,0 -0.08,0 -0.12,0 0.04,0 0.08,0 0.12,0 m -0.25,0 c -0.04,0 -0.08,0.012 -0.12,0.012 0.04,0 0.08,-0.012 0.12,-0.012 m -0.24,0.012 c -0.04,0 -0.08,0 -0.12,0 0.04,0 0.08,0 0.12,0 m -0.24,0 c -0.04,0.012 -0.08,0.012 -0.12,0.012 0.04,0 0.08,0 0.12,-0.012 m -0.24,0.012 c -0.04,0 -0.08,0 -0.12,0 0.04,0 0.08,0 0.12,0 m -0.24,0.007 c -0.04,0 -0.08,0 -0.12,0 0.04,0 0.08,0 0.12,0 m -0.24,0.012 c -0.04,0 -0.08,0 -0.12,0 0.04,0 0.08,0 0.12,0 m -0.24,0.008 c -0.04,0 -0.08,0 -0.12,0 0.04,0 0.08,0 0.12,0 m -0.26,0.012 c -0.03,0 -0.06,0 -0.09,0 0.03,0 0.06,0 0.09,0 m -0.25,0.007 c -0.03,0 -0.05,0 -0.08,0 0.03,0 0.05,0 0.08,0 m -0.3,0.012 c 0,0.012 -0.01,0.012 -0.01,0.012 0,0 0.01,0 0.01,-0.012 m -0.74,0.051 v 0 0 m -0.24,0.019 v 0 0 m 271.3,6.098 0.01,0.012 -0.01,-0.012 m 0.08,0.031 c 0.01,0 0.01,0 0.01,0 0,0 0,0 -0.01,0 m 0.09,0.032 v 0 0"
         style="fill:#ffffff;fill-opacity:1;fill-rule:nonzero;stroke:none"
         id="path228" />
      <path
         d="m 6353.03,233.578 c -0.04,0 -0.09,0 -0.13,0 -0.04,0 -0.07,0 -0.11,0 -0.05,0 -0.09,0 -0.14,0 -0.03,0 -0.07,0 -0.11,0 -0.04,0 -0.08,0 -0.13,0 -0.04,0 -0.07,0 -0.11,0 -0.04,0 -0.08,0 -0.12,0 -0.04,0 -0.09,0 -0.13,0 -0.04,0 -0.08,0.012 -0.12,0.012 -0.04,0 -0.08,0 -0.12,0 -0.04,0 -0.08,0 -0.12,0 -0.04,0 -0.08,0 -0.12,0 -0.04,0.012 -0.08,0.012 -0.12,0.012 -0.04,0 -0.08,0 -0.12,0 -0.04,0 -0.08,0 -0.12,0 -0.04,0.007 -0.08,0.007 -0.12,0.007 -0.04,0 -0.08,0 -0.12,0 -0.04,0 -0.08,0 -0.12,0.012 -0.04,0 -0.08,0 -0.12,0 -0.04,0 -0.08,0 -0.12,0.008 -0.04,0 -0.08,0 -0.12,0 -0.04,0 -0.09,0 -0.14,0.012 -0.03,0 -0.06,0 -0.09,0 -0.05,0 -0.11,0.007 -0.16,0.007 -0.03,0 -0.05,0 -0.08,0 -0.07,0.012 -0.15,0.012 -0.22,0.012 0,0.012 -0.01,0.012 -0.01,0.012 -0.24,0.008 -0.49,0.019 -0.73,0.039 v 0 c -0.08,0.008 -0.16,0.008 -0.24,0.019 v 0 c -19.15,1.411 -30.43,12.379 -34.64,23.168 6.34,0.09 309.63,4.192 313.6,5.622 l 1.83,-6.649 c 1.29,-6.851 -2.59,-13.723 -9.32,-15.98 v 0 c -0.03,-0.012 -0.05,-0.02 -0.08,-0.032 0,0 0,0 -0.01,0 -0.02,-0.007 -0.04,-0.019 -0.07,-0.019 l -0.01,-0.012 c -0.05,-0.008 -0.1,-0.027 -0.15,-0.039 v 0 c -0.21,-0.07 -0.42,-0.129 -0.63,-0.18 -1.13,-0.3 -2.29,-0.449 -3.46,-0.449 -34.69,-0.738 -53.56,-1.14 -90.34,-1.93 -5.73,-0.121 -11.89,-0.25 -18.61,-0.39 l -152.6,-3.25 c -0.44,-0.012 -0.87,-0.012 -1.3,-0.012"
         style="fill:#b8d2ef;fill-opacity:1;fill-rule:nonzero;stroke:none"
         id="path230" />
      <path
         d="m 6683.49,2832.94 c 0,0 -17.11,56.38 0.91,161.61 l -5.66,1.99 c 2.46,14.71 5.3,28.37 8.1,40.25 l 0.04,0.45 -129.64,-101.9 c 6.96,-32.21 2.38,-96.5 -1.59,-123.88 0,0 -12.15,-50.14 52.14,-45.01 46.98,3.76 75.7,66.49 75.7,66.49"
         style="fill:#c8685a;fill-opacity:1;fill-rule:nonzero;stroke:none"
         id="path232" />
      <path
         d="m 6559.46,2849.85 c 0,0 0,0.02 0,0.05 0,-0.02 0,-0.03 0,-0.05 -0.01,0 0,0 0,0"
         style="fill:#c3c5c2;fill-opacity:1;fill-rule:nonzero;stroke:none"
         id="path234" />
      <path
         d="m 6559.46,2849.85 c 0,0.02 0,0.03 0,0.05 0.08,0.96 1.24,15.08 1.26,26.97 27.36,1.21 54.68,12.58 76.8,36.08 -5.51,-25.1 -24.98,-54.76 -78.06,-63.1"
         style="fill:#995147;fill-opacity:1;fill-rule:nonzero;stroke:none"
         id="path236" />
      <path
         d="m 6680.3,3105.07 c 0.59,-89.43 2.73,-139.85 -39.25,-188.21 -63.15,-72.75 -173.39,-40.29 -200.76,47.41 -24.64,78.94 -21.47,211.92 63.52,252.47 83.73,39.96 175.89,-22.25 176.49,-111.67"
         style="fill:#c8685a;fill-opacity:1;fill-rule:nonzero;stroke:none"
         id="path238" />
      <path
         d="m 6684.3,3212.91 c -15.57,48.25 -138.6,40.41 -171.24,12.99 -4.88,-4.09 70.46,-35.73 65.93,-34.42 l 35.11,-9.52 c 5.2,1.53 16,-3.94 22.49,-19.99 0,0 5.39,-136.8 46.77,-173.69 30.06,17.28 28.19,71.52 35.81,104.41 11.33,49.01 24.14,120.52 -34.87,120.22"
         style="fill:#17282f;fill-opacity:1;fill-rule:nonzero;stroke:none"
         id="path240" />
      <path
         d="m 6720.52,3033.23 c -5.56,-23.42 -21.46,-41.98 -38.53,-51.96 -25.68,-15.01 -37.56,13.37 -36.96,41.6 0.55,25.41 5.83,56.68 34.74,60.17 28.48,3.44 47.1,-23.04 40.75,-49.81"
         style="fill:#c8685a;fill-opacity:1;fill-rule:nonzero;stroke:none"
         id="path242" />
      <path
         d="m 6554.58,3070.68 c 0.62,-9.11 -3.71,-16.78 -9.68,-17.13 -5.97,-0.35 -11.32,6.76 -11.94,15.87 -0.62,9.11 3.72,16.78 9.69,17.13 5.97,0.35 11.31,-6.76 11.93,-15.87"
         style="fill:#17282f;fill-opacity:1;fill-rule:nonzero;stroke:none"
         id="path244" />
      <path
         d="m 6465.33,3062.81 c 0.62,-9.11 -3.72,-16.78 -9.69,-17.13 -5.96,-0.34 -11.31,6.76 -11.93,15.88 -0.62,9.11 3.71,16.78 9.68,17.13 5.97,0.34 11.32,-6.76 11.94,-15.88"
         style="fill:#17282f;fill-opacity:1;fill-rule:nonzero;stroke:none"
         id="path246" />
      <path
         d="m 6494.06,3069.85 c 0,0 -25.76,-47.25 -33.75,-66.31 13.46,-10.6 34.95,-3.83 34.95,-3.83 l -1.2,70.14"
         style="fill:#b5413c;fill-opacity:1;fill-rule:nonzero;stroke:none"
         id="path248" />
      <path
         d="m 6573.93,3115.15 c -1.33,-0.66 -2.98,-0.6 -4.32,0.31 -15.86,10.72 -30.49,4.88 -30.63,4.82 -2.18,-0.9 -4.7,0.13 -5.62,2.3 -0.92,2.17 0.11,4.67 2.28,5.57 0.77,0.32 19.09,7.64 38.77,-5.67 1.97,-1.32 2.48,-3.98 1.16,-5.92 l -1.64,-1.41"
         style="fill:#17282f;fill-opacity:1;fill-rule:nonzero;stroke:none"
         id="path250" />
      <path
         d="m 6527.33,2968.97 c 16.16,0.96 28.1,10.01 39,22.06 1.39,1.53 1.28,3.9 -0.26,5.29 -1.53,1.39 -3.9,1.28 -5.29,-0.25 -10.51,-11.53 -20.49,-18.79 -33.9,-19.62 -2.07,-0.12 -3.65,-1.9 -3.52,-3.97 0.12,-2.06 1.9,-3.64 3.97,-3.51"
         style="fill:#17282f;fill-opacity:1;fill-rule:nonzero;stroke:none"
         id="path252" />
      <path
         d="m 6659.66,3024.52 c -0.04,0 -0.08,0 -0.11,0.01 -1.38,0.06 -2.45,1.23 -2.39,2.61 0.37,8.15 2.9,16.17 7.27,23.06 3.66,5.73 8.88,11 15.79,13.22 2,0.64 4.1,0.96 6.19,0.96 5.26,-0.01 10.64,-2 14.07,-6.38 0.84,-1.09 0.65,-2.66 -0.44,-3.51 -0.46,-0.35 -1,-0.52 -1.53,-0.52 -0.75,0 -1.49,0.33 -1.98,0.96 -2.23,2.89 -6.09,4.45 -10.12,4.45 -1.59,0 -3.18,-0.25 -4.67,-0.72 -5.34,-1.69 -9.85,-6.04 -13.09,-11.15 -3.9,-6.13 -6.17,-13.33 -6.49,-20.6 -0.07,-1.34 -1.17,-2.39 -2.5,-2.39"
         style="fill:#995147;fill-opacity:1;fill-rule:nonzero;stroke:none"
         id="path254" />
      <path
         d="m 6423.27,3098.59 -2.24,1.05 c -1.76,1.58 -1.93,4.29 -0.37,6.05 15.63,17.66 35.06,14.7 35.95,14.68 2.33,-0.37 3.94,-2.56 3.6,-4.89 -0.34,-2.33 -2.48,-3.92 -4.8,-3.58 -0.81,0.15 -15.8,2.24 -28.35,-11.93 -0.98,-1.11 -2.42,-1.58 -3.79,-1.38"
         style="fill:#17282f;fill-opacity:1;fill-rule:nonzero;stroke:none"
         id="path256" />
      <path
         d="m 6699.92,3252.87 c -8.31,19.36 -34.51,21.58 -53.75,15.85 -1.14,24.41 -34.03,35.78 -53.93,33.44 -20.74,-2.45 -27.49,-11.4 -27.49,-11.4 1.64,-0.2 -7.32,11.53 -12.63,16.03 -19.61,16.61 -48.61,19.67 -70.53,7.42 -21.93,-12.24 -35.5,-39.06 -33.02,-65.24 -14.02,12.05 -37.08,9.56 -48.08,-5.19 -11,-14.74 -7.87,-38.98 6.52,-50.53 -15.18,-2.25 -26.54,-19.42 -23.34,-35.26 3.2,-15.85 20.31,-27.12 35.14,-23.16 2.47,-17.93 6.33,-40.25 8.79,-58.18 l 18.32,68.26 c 12.01,5.47 13.88,11.33 15.21,25.07 10.57,-16.22 24.72,-13.61 43.12,-11.31 18.39,2.3 34.87,16.14 41.01,34.44 11.09,-16.93 30.38,-28.85 49.65,-26.73 19.28,2.13 36.45,20.72 34.61,41.06 12.91,-16.4 37.57,-20.87 54.56,-9.91 17,10.97 24.16,35.98 15.84,55.34"
         style="fill:#17282f;fill-opacity:1;fill-rule:nonzero;stroke:none"
         id="path258" />
      <path
         d="m 6835.34,2838.6 c 0,0 79.54,-2.18 111.51,-90.9 29.43,-81.69 104.31,-261.81 104.31,-261.81 l -179.03,-52.43 -71.28,213.28 34.49,191.86"
         style="fill:#406fbf;fill-opacity:1;fill-rule:nonzero;stroke:none"
         id="path260" />
      <path
         d="m 6542.86,1987.86 107.93,-230.31 c 0,0 -171.37,-515.91 -181.67,-569.68 -10.31,-53.77 -15.09,-731.19 -15.09,-731.19 l 190.69,-0.301 74.77,660.831 c 0,0 231.56,561.24 248.53,606.88 31.76,85.38 -1.55,200.23 -1.55,200.23 l -58.96,85.01 -364.65,-21.47"
         style="fill:#17282f;fill-opacity:1;fill-rule:nonzero;stroke:none"
         id="path262" />
      <path
         d="m 6438.14,1872.38 c 0,-20.95 74.39,-735.55 86.6,-738.11 12.21,-2.56 551.13,-591.981 551.13,-591.981 l 153.03,134.371 -395.42,536.15 -43.79,481.79 -15.34,302.85 -344.88,-25.48 8.67,-99.59"
         style="fill:#17282f;fill-opacity:1;fill-rule:nonzero;stroke:none"
         id="path264" />
      <path
         d="m 6711.81,937.941 -11.53,9.469 0.3,2.641 c 3.72,-4 7.46,-8.039 11.23,-12.11 m 108.18,423.269 v 0 0.01 0"
         style="fill:#8c8f8f;fill-opacity:1;fill-rule:nonzero;stroke:none"
         id="path266" />
      <path
         d="m 6700.28,947.41 -0.59,0.481 0.17,2.937 c 0.25,-0.269 0.47,-0.508 0.72,-0.777 l -0.3,-2.641 m 119.71,413.8 v 0 0.01 -0.01"
         style="fill:#0c1418;fill-opacity:1;fill-rule:nonzero;stroke:none"
         id="path268" />
      <path
         d="m 6728.88,923.949 -17.07,13.992 c -3.77,4.071 -7.51,8.11 -11.23,12.11 -0.25,0.269 -0.47,0.508 -0.72,0.777 l 9.34,164.882 110.79,245.5 v 0 0 l -83.17,-259.54 -7.94,-177.721"
         style="fill:#0c1418;fill-opacity:1;fill-rule:nonzero;stroke:none"
         id="path270" />
      <path
         d="m 6499.87,1297.2 -6.54,54.68 121.6,387.65 -16.69,66.03 52.55,-48.01 -150.92,-460.35"
         style="fill:#0c1418;fill-opacity:1;fill-rule:nonzero;stroke:none"
         id="path272" />
      <path
         d="m 5978.29,2614.86 233.5,-214.33 108.84,202.59 c 0,0 118.75,-117.25 114.7,-118.98 -4.05,-1.74 -139.79,-298.94 -237.69,-245.61 -97.89,53.33 -263.43,321.48 -263.43,321.48 l 44.08,54.85"
         style="fill:#c8685a;fill-opacity:1;fill-rule:nonzero;stroke:none"
         id="path274" />
      <path
         d="m 6229.5,2337.59 c 2.53,30.55 -17.71,62.94 -17.71,62.94 l 9.42,17.53 c 0,0 11.87,-16.84 14.61,-41.17 2.74,-24.33 -6.32,-39.3 -6.32,-39.3"
         style="fill:#995147;fill-opacity:1;fill-rule:nonzero;stroke:none"
         id="path276" />
      <path
         d="m 6426.74,2785.4 c 63.74,-32.7 89.33,-148.9 -47.66,-429.03 l -163.61,126.23 c 26.24,69.9 52.87,106.3 94.82,191.15 66.53,131.71 116.45,111.65 116.45,111.65"
         style="fill:#406fbf;fill-opacity:1;fill-rule:nonzero;stroke:none"
         id="path278" />
      <path
         d="m 6424.7,2789.66 c 44.97,9.97 223.77,56.8 415.04,48.77 l 101.03,-712.4 c 0,0 19.63,-93.34 46.48,-185.93 -182.13,-105.47 -434.93,-122.48 -570.57,-64.95 1.8,-2.84 -2.46,76.06 -8.29,191.69 -10.27,203.75 -25.38,521.53 -20.67,706.96 0.18,4.59 32.5,14.87 36.98,15.86"
         style="fill:#406fbf;fill-opacity:1;fill-rule:nonzero;stroke:none"
         id="path280" />
      <path
         d="m 6379.08,2356.37 v 0 l -20.71,15.97 29.09,245.44 c 1.07,-72.36 3.45,-151.52 6.42,-230.35 v -0.05 l -14.8,-31.01 v 0"
         style="fill:#3563b7;fill-opacity:1;fill-rule:nonzero;stroke:none"
         id="path282" />
      <path
         d="m 6393.88,2387.43 c -2.97,78.83 -5.35,157.99 -6.42,230.35 v 0.01 l 6.42,-230.36"
         style="fill:#3563b7;fill-opacity:1;fill-rule:nonzero;stroke:none"
         id="path284" />
      <path
         d="m 6889.09,2408.06 -33.25,0.18 -48.92,199.94 65.21,-174.72 10.01,2.93 6.95,-28.33"
         style="fill:#3563b7;fill-opacity:1;fill-rule:nonzero;stroke:none"
         id="path286" />
      <path
         d="m 6000.82,2577.73 c 0,0 17.91,28.3 11.52,55.24 -6.39,26.95 -4.32,50.16 -10.45,69.86 -6.14,19.71 -17.26,-5.83 -20.42,-20.61 -3.17,-14.78 -6.91,-31.51 -17.63,-27.33 -10.71,4.17 -72.82,81.17 -88.34,85.26 -15.52,4.1 -9.37,-11.5 -9.37,-11.5 0,0 -15.59,18.3 -24.52,14.1 -2.32,-1.1 -5.94,-7.4 -0.14,-16.85 13.04,-21.26 42.71,-64.46 42.71,-64.46 -1.65,2.51 -42.08,53.23 -49.13,60.03 -9.21,8.9 -18.09,8.4 -23.07,2.89 -7.1,-7.84 40.89,-72.43 41.01,-76.57 0,0 -26.38,38.11 -39.95,36.68 -13.56,-1.43 1.74,-26.32 19.4,-45.71 16.18,-17.78 43.29,-56.88 61.5,-73.35 22.43,-20.3 42.06,-28.89 68.09,-17.6 26.03,11.28 38.79,29.92 38.79,29.92"
         style="fill:#c8685a;fill-opacity:1;fill-rule:nonzero;stroke:none"
         id="path288" />
      <path
         d="m 5903.62,2679.09 -1.74,0.35 c -10.69,15.98 -22.11,31.48 -34.21,46.42 l 0.19,1.76 1.75,-0.18 c 12.15,-15.01 23.62,-30.57 34.35,-46.61 l -0.34,-1.74"
         style="fill:#82443d;fill-opacity:1;fill-rule:nonzero;stroke:none"
         id="path290" />
      <path
         d="m 5861.99,2631.62 -0.28,1.75 c 14.7,20.39 35.51,36.3 59.04,45.14 l 1.61,-0.73 -0.73,-1.61 c -23.06,-8.66 -43.49,-24.28 -57.89,-44.27 l -1.75,-0.28"
         style="fill:#82443d;fill-opacity:1;fill-rule:nonzero;stroke:none"
         id="path292" />
      <path
         d="m 5958.66,2585.84 -1.75,0.25 c -5.83,7.78 -9.03,17.46 -9.03,27.17 l 0.05,2.16 c 0.52,10.43 4.77,20.6 11.81,28.31 l 1.77,0.07 0.08,-1.76 c -6.65,-7.26 -10.68,-16.91 -11.16,-26.74 l -0.05,-2.04 c 0,-9.16 3.03,-18.34 8.53,-25.67 l -0.25,-1.75"
         style="fill:#82443d;fill-opacity:1;fill-rule:nonzero;stroke:none"
         id="path294" />
      <path
         d="m 7037.71,2481.95 c 0,0 53.87,-127.59 76.73,-242.09 10.4,-52.04 -31.2,-85.39 -73.72,-95.66 -134.01,-32.39 -435.99,-32.5 -435.99,-32.5 l -7.91,92.11 347.82,75.26 -62.5,157.32 155.57,45.56"
         style="fill:#c8685a;fill-opacity:1;fill-rule:nonzero;stroke:none"
         id="path296" />
      <path
         d="m 6603.97,2092.09 -114.02,-12.85 c -3.89,-0.44 -7.78,0.9 -10.57,3.66 l -173.51,171.54 c -7.16,7.08 -3.87,19.26 5.88,21.78 l 100.26,25.85 c 4.41,1.14 9.09,-0.12 12.34,-3.32 l 187.26,-184.54 c 7.77,-7.65 3.2,-20.89 -7.64,-22.12"
         style="fill:#17282f;fill-opacity:1;fill-rule:nonzero;stroke:none"
         id="path298" />
      <path
         d="m 6614.63,2203.32 c 0,0 -3.22,13.42 -53.66,28.8 -38.32,11.7 -76.37,47.56 -82.56,46.32 -6.18,-1.24 -12.95,-20.75 3,-38 15.94,-17.26 32.43,-26.99 28.23,-33.57 -10.15,-15.9 -134.85,-2.96 -137,-16.56 -2.14,-13.61 21.63,-52.57 88.39,-78.61 66.77,-26.04 158.3,0.08 158.3,0.08 l -4.7,91.54"
         style="fill:#c8685a;fill-opacity:1;fill-rule:nonzero;stroke:none"
         id="path300" />
      <path
         d="M 5985.44,687.102 726.891,563.84 v 899.39 H 6036.03 l -50.59,-776.128"
         style="fill:#17282f;fill-opacity:1;fill-rule:nonzero;stroke:none"
         id="path302" />
      <path
         d="m 1029.89,570.941 c -23.34,95.231 -23.87,194.75 -1.39,290.418 67.35,286.641 322.9,480.001 605.14,480.001 0.32,0 0.62,0 0.94,-0.01 46.56,-0.13 93.81,-5.52 141.08,-16.63 326.95,-76.81 532.52,-398.49 468.25,-725.322 l -105.81,-2.476 c 40.87,169.68 -4.91,356 -137.36,488.448 -101.22,101.21 -233.88,151.82 -366.54,151.82 -132.66,0 -265.32,-50.61 -366.54,-151.82 C 1129.07,946.781 1085.37,749.219 1136.55,573.441 l -106.66,-2.5 m 3706.97,86.891 c -2.27,22.078 -3.36,44.258 -3.27,66.457 1.5,342.461 279.43,619.081 621.45,619.451 0.67,0 1.28,0 1.95,-0.01 343.61,-1.49 620.94,-281.26 619.45,-624.871 0,-10.75 -0.78,-21.379 -0.95,-31.988 l -102.96,-2.422 c 9.53,143.903 -40.7,291.031 -150.69,401.011 -101.21,101.22 -233.87,151.83 -366.53,151.83 -132.66,0 -265.32,-50.61 -366.54,-151.83 C 4872.6,969.301 4823.1,811.719 4840.26,660.262 l -103.4,-2.43"
         style="fill:#0a1013;fill-opacity:1;fill-rule:nonzero;stroke:none"
         id="path304" />
      <path
         d="M 524.637,1232.48 V 776.332 c -0.035,-97.711 63.64,-184.031 157.011,-212.84 l 37.168,-11.301 c 22.887,-7.101 46.778,-10.41 70.731,-9.82 l 245.593,5.731 c -29.17,102.07 -31.74,209.91 -7.46,313.257 78.59,334.501 413.47,541.961 747.98,463.361 334.5,-78.59 541.96,-413.47 463.37,-747.97 L 4738,636.18 c -4.04,29.191 -6.01,58.64 -5.88,88.109 1.5,343.611 281.26,620.941 624.87,619.441 343.61,-1.49 620.94,-281.26 619.45,-624.871 0,-12.109 -0.99,-24.058 -0.99,-36.019 3.28,1.308 6.72,2.621 9.99,4.262 l 85.47,38.148 c 84.29,38.078 138.48,121.992 138.51,214.48 v 928.99 c 0.02,87.39 -48.4,167.58 -125.74,208.26 l -642.31,337.77 c -7.35,3.92 -13,10.41 -15.87,18.23 -6.45,17.57 2.56,37.05 20.13,43.5 l 78.59,28.16 c 6.59,2.26 11.34,8.07 12.23,14.99 1.3,10.04 -5.79,19.24 -15.83,20.54 -305.19,42.57 -1492.21,197.78 -2116.18,121.49 C 2684.69,2573.57 1994.91,1948.95 1994.91,1948.95 1465.25,1968.76 970.793,1784.4 757.945,1691.9 689.23,1661.9 636.371,1604.29 612.391,1533.24 l -72.856,-215.79 c -9.535,-27.33 -14.57,-56.03 -14.898,-84.97"
         style="fill:#406fbf;fill-opacity:1;fill-rule:nonzero;stroke:none"
         id="path306" />
      <path
         d="m 4738.66,636.18 c -3.63,27.41 -5.43,55.031 -5.41,82.679 0,14.082 0.49,28 1.31,41.922 l -451.89,184.848 c -26.45,10.762 -54.99,15.41 -83.5,13.582 L 2627.39,856.07 c -25.7,-1.629 -50.78,-8.539 -73.68,-20.308 L 2255.07,682.191 c -2.13,-35.511 -7.22,-70.781 -15.22,-105.441 l 2498.81,59.43"
         style="fill:#17282f;fill-opacity:1;fill-rule:nonzero;stroke:none"
         id="path308" />
      <path
         d="m 6209.58,939.73 v 23.739 l -255.57,-78.258 c 14.9,-54.191 22.44,-110.141 22.43,-166.352 0,-12.109 -0.99,-24.058 -0.99,-36.019 3.28,1.308 6.72,2.621 9.99,4.262 l 85.63,38.148 c 84.29,38.078 138.48,121.992 138.51,214.48"
         style="fill:#17282f;fill-opacity:1;fill-rule:nonzero;stroke:none"
         id="path310" />
      <path
         d="m 597.168,612.602 c 24.395,-22.551 53.547,-39.34 85.301,-49.11 l 37.168,-11.301 c 22.886,-7.101 46.773,-10.41 70.726,-9.832 l 245.597,5.743 c -8.9,31.039 -15.3,62.738 -19.16,94.789 L 597.168,612.602"
         style="fill:#17282f;fill-opacity:1;fill-rule:nonzero;stroke:none"
         id="path312" />
      <path
         d="m 5355.91,1399.48 c -28.25,0.01 -56.46,-1.75 -84.49,-5.25 -372.91,-46.56 -637.46,-386.62 -590.89,-759.519 l 58.94,1.469 c -4.04,29.191 -6.01,58.64 -5.88,88.109 1.5,343.611 281.26,620.941 624.87,619.441 343.61,-1.49 620.95,-281.26 619.45,-624.871 0,-12.109 -0.98,-24.058 -0.98,-36.019 3.27,1.308 6.71,2.621 9.98,4.262 l 49.12,22.269 c 0,3.27 0,6.379 0,9.488 -0.45,375.771 -305,680.261 -680.78,680.621 h 0.66"
         style="fill:#17282f;fill-opacity:1;fill-rule:nonzero;stroke:none"
         id="path314" />
      <path
         d="m 1634.22,1399.48 c -58.13,0.01 -116.02,-7.42 -172.25,-22.11 C 1098.28,1282.33 880.504,910.469 975.543,546.789 l 60.417,1.313 c -29.17,102.07 -31.74,209.91 -7.46,313.257 78.59,334.501 413.47,541.951 747.98,463.361 334.5,-78.59 541.96,-413.47 463.37,-747.97 l 60.25,1.469 c 9.8,46.351 14.73,93.59 14.72,140.961 -0.08,375.81 -304.8,680.39 -680.6,680.3"
         style="fill:#17282f;fill-opacity:1;fill-rule:nonzero;stroke:none"
         id="path316" />
      <path
         d="m 2226.49,1922.8 c -7.27,-6.16 -12.45,-15.01 -14.62,-25.03 -5.15,-23.74 7.53,-47.66 28.33,-53.43 l 259.77,-72.81 c 23.01,-6.52 46.88,-8.32 70.49,-5.32 l 1926.07,238.63 c 46.87,5.95 90.56,30.19 123.66,68.62 l 252.67,294.36 c 8.42,9.72 13.75,22.37 15.14,35.91 3.45,33.5 -17.56,63.72 -46.93,67.5 -461.21,61.16 -1044.36,116.77 -1412.59,71.77 -482.61,-58.89 -968.5,-421.66 -1201.99,-620.2"
         style="fill:#406fbf;fill-opacity:1;fill-rule:nonzero;stroke:none"
         id="path318" />
      <path
         d="m 2652.77,1771.25 -0.93,5.04 1104.71,136.87 -15.43,-67.3 -1088.35,-74.61 m 1301.62,89.23 11.1,78.56 531.04,65.8 c 46.87,5.95 90.56,30.19 123.66,68.62 l 252.67,294.36 c 8.42,9.72 13.75,22.37 15.14,35.91 3.45,33.5 -17.56,63.72 -46.93,67.5 -342.53,45.42 -752.34,87.78 -1091.39,88.14 1.44,0 2.9,0 4.35,0 339.89,0 751.73,-42.52 1095.72,-88.14 29.37,-3.78 50.38,-34 46.93,-67.5 -1.39,-13.54 -6.72,-26.19 -15.14,-35.91 l -248.9,-310.52 c -51.23,-69.94 -123.68,-156.07 -170.55,-162.02 l -507.7,-34.8"
         style="fill:#cfe0f5;fill-opacity:1;fill-rule:nonzero;stroke:none"
         id="path320" />
      <path
         d="m 2651.84,1776.29 -75,405.15 c 244.03,163.17 552.82,324.04 860.32,361.56 92.42,11.29 198.35,16.25 312.52,16.37 339.05,-0.36 748.86,-42.72 1091.39,-88.14 29.37,-3.78 50.38,-34 46.93,-67.5 -1.39,-13.54 -6.72,-26.19 -15.14,-35.91 l -252.67,-294.36 c -33.1,-38.43 -76.79,-62.67 -123.66,-68.62 l -531.04,-65.8 86.34,610.77 c -49.95,2.85 -99.2,5.07 -147.75,6.65 l -147.53,-643.3 -1104.71,-136.87 m 837.96,293.67 c 0.85,-20.05 -11.21,-34.76 -11.21,-34.76 l -19.49,-44.34 c 43.5,34.11 142.64,52.34 142.64,52.34 -5.18,18.13 -9.4,35.89 -12.6,53.49 41.3,6.1 71.81,13.51 78.41,21.08 13.58,15.61 16.35,69.39 13.07,130.32 -2.42,44.75 -10.71,75.06 -32.63,117.15 -22.39,48.58 -64.19,86.31 -130.59,86.31 -10.72,0 -22.1,-0.98 -34.13,-3.07 -52.58,-6.78 -141.36,-42.2 -155.96,-130.64 -29.96,-181.48 -54.4,-231.79 -54.4,-231.79 0,0 18.9,-1.09 48.38,-2.43 0.02,0 0.03,0 0.05,0 5.13,0 20.35,33.27 20.35,33.27 0,0 3.24,-34.29 7.16,-34.45 10.51,-0.43 21.82,-0.63 33.71,-0.63 32.34,0 68.88,1.5 104.75,4.1 0.84,-4.38 1.58,-9.33 2.49,-15.95 m -614.06,208.45 c -10.82,0 -3.04,-25.14 7.94,-46.17 10.45,-19.98 25.7,-61.9 38.28,-81.18 13.58,-20.8 27.34,-32.95 48.2,-32.95 2.97,0 6.08,0.25 9.36,0.75 26.29,4.03 42.3,17.89 42.3,17.89 0,0 22.99,21.39 23.62,47.35 0.63,25.95 8.04,46.51 7.18,65.84 -0.26,5.69 -1.84,7.93 -4.11,7.93 -5.43,0 -14.81,-12.83 -19.32,-21.76 -5.32,-10.5 -11.31,-22.13 -18.18,-22.13 -1.4,0 -2.84,0.48 -4.32,1.55 -8.72,6.34 -46.69,90.97 -59.78,98.38 -2.52,1.43 -4.48,2 -6.01,2 -6.45,0 -5.23,-10.19 -5.23,-10.19 0,0 -9.01,18.72 -17.79,18.72 -0.36,0 -0.72,-0.03 -1.08,-0.1 -2.37,-0.43 -7.15,-5.28 -4.15,-15.23 6.55,-21.71 22.36,-65.84 23.32,-68.52 -1.48,3.95 -25.49,58.28 -30.2,66.03 -4.24,6.99 -9.38,9.99 -14.07,9.99 -2.2,0 -4.3,-0.66 -6.16,-1.87 -8.3,-5.42 19.81,-75.43 18.93,-79.22 0,0 -14.83,40.85 -27.47,42.79 -0.45,0.07 -0.87,0.1 -1.26,0.1"
         style="fill:#cfe0f5;fill-opacity:1;fill-rule:nonzero;stroke:none"
         id="path322" />
      <path
         d="m 3501.42,1737.88 c -2.73,0 -5.45,0.47 -8.03,1.4 -12.34,4.45 -18.73,18.05 -14.29,30.39 5.46,15.27 19.65,25.7 35.86,26.36 l 229.21,9.66 c 0.36,0.01 0.72,0.02 1.07,0.02 2.74,0 5.46,-0.47 8.05,-1.39 12.43,-4.45 18.91,-18.13 14.46,-30.56 -5.56,-15.27 -19.78,-25.68 -36.02,-26.36 l -229.22,-9.5 c -0.36,-0.01 -0.72,-0.02 -1.09,-0.02"
         style="fill:#2d5bb2;fill-opacity:1;fill-rule:nonzero;stroke:none"
         id="path324" />
      <path
         d="m 5198.04,2396.01 c -20.27,-18.03 -22.09,-49.07 -4.06,-69.34 l 54.36,-59.11 c 6.24,-6.63 14.16,-11.44 22.92,-13.91 l 665.88,-184.69 c 11.59,-3.12 23.53,-4.72 35.53,-4.75 h 132.29 c -6.87,4.59 -13.92,8.84 -21.28,12.77 l -642.31,338.1 -0.03,0.02 c -16.22,8.01 -22.87,27.65 -14.86,43.86 l -208.59,-52.23 c -7.36,-1.98 -14.15,-5.65 -19.85,-10.72"
         style="fill:#406fbf;fill-opacity:1;fill-rule:nonzero;stroke:none"
         id="path326" />
      <path
         d="m 1051.6,1604.97 -227.198,24.74 -130.535,-53.39 c -27.441,-11.22 -47.937,-34.79 -55.25,-63.52 -4.285,-16.62 -1.875,-34.26 6.711,-49.12 l 2.293,-3.93 c 14.598,-25.13 42.918,-38.97 71.715,-35.04 l 130.98,18.01 c 12.77,1.83 24.875,6.84 35.2,14.57 l 151.124,114.61 14.96,33.07"
         style="fill:#ffffff;fill-opacity:1;fill-rule:nonzero;stroke:none"
         id="path328" />
      <path
         d="m 1995.4,1949.28 36.18,-10.32 c 28.12,-8.02 58.39,-1.52 80.72,17.36 210.56,178.13 576.65,451.39 971.72,578.77 1.76,0.58 3.23,1.79 4.13,3.4 2,3.55 0.73,8.04 -2.82,10.03 l -49.11,25.21 C 2466.28,2376.11 1995.4,1949.28 1995.4,1949.28"
         style="fill:#406fbf;fill-opacity:1;fill-rule:nonzero;stroke:none"
         id="path330" />
      <path
         d="m 2055.66,1935.59 c -8.04,0 -16.15,1.11 -24.08,3.37 l -36.18,10.32 c 0,0 470.88,426.83 1040.82,624.45 l 49.11,-25.21 c 2.42,-1.36 3.77,-3.86 3.77,-6.45 0,-1.21 -0.31,-2.45 -0.95,-3.58 -0.9,-1.61 -2.37,-2.82 -4.13,-3.4 -395.07,-127.38 -761.16,-400.64 -971.72,-578.77 -12.55,-10.61 -27.61,-17.31 -43.39,-19.72 -0.4,0.91 -1.31,1.49 -2.29,1.49 -0.2,0 -0.4,-0.02 -0.6,-0.07 -0.01,0 -3.46,-0.86 -9.85,-2.43 -0.17,0 -0.34,0 -0.51,0"
         style="fill:#cfe0f5;fill-opacity:1;fill-rule:nonzero;stroke:none"
         id="path332" />
      <path
         d="m 2517.23,894.672 c -55.78,83.68 -157.04,237.548 -200.22,315.408 -15.41,27.73 -29.84,83.95 -42.5,152.28 -11.8,63.56 -22.17,137.7 -30.87,209.74 l 1700.18,121.59 c -0.99,-9.3 -2.17,-17.6 -3.59,-24.65 -8.84,-44.24 -47.79,-228.36 -84.52,-401.38 -15.14,-71.3 -29.9,-140.73 -42.02,-197.71 L 2517.23,894.672 m 1301.72,175.988 c 41.6,195.55 113.71,535.02 126.18,597.4 1.5,7.47 2.74,16.22 3.76,25.99 l 205.75,14.71 h 766.73 l -772.62,-593.51 -329.8,-44.59 m -1429.18,10.02 -35.33,52.8 c -14.17,21.17 -26.65,43.34 -37.38,66.29 18.12,-31.95 44.32,-74.43 72.71,-119.09"
         style="fill:#5d87cd;fill-opacity:1;fill-rule:nonzero;stroke:none"
         id="path334" />
      <path
         d="m 5721.84,352.391 c -202.43,-202.43 -530.64,-202.43 -733.07,0 -202.43,202.429 -202.43,530.64 0,733.069 202.43,202.44 530.64,202.44 733.07,0 202.44,-202.429 202.44,-530.64 0,-733.069"
         style="fill:#17282f;fill-opacity:1;fill-rule:nonzero;stroke:none"
         id="path336" />
      <path
         d="m 5355.31,401.129 c -81.33,0 -162.67,31.031 -224.72,93.082 -124.11,124.109 -124.11,325.328 0,449.43 62.05,62.059 143.39,93.079 224.72,93.079 81.33,0 162.66,-31.02 224.71,-93.079 124.11,-124.102 124.11,-325.321 0,-449.43 -62.05,-62.051 -143.38,-93.082 -224.71,-93.082 m -0.05,245.531 c -14.02,0 -25.38,-11.359 -25.38,-25.379 v -162.91 c 0,-14.012 11.36,-25.383 25.38,-25.383 h 0.16 c 14.01,0 25.38,11.371 25.38,25.383 v 162.91 c 0,14.02 -11.37,25.379 -25.38,25.379 h -0.16 m 84.6,49.309 c -8.77,0 -17.31,-4.52 -22.06,-12.641 -7.05,-12.199 -2.87,-27.808 9.33,-34.867 l 140.97,-81.859 c 4.02,-2.321 8.41,-3.43 12.74,-3.43 8.82,0 17.4,4.578 22.13,12.758 6.94,12.172 2.77,27.66 -9.33,34.711 L 5452.67,692.5 c -4.04,2.352 -8.45,3.469 -12.81,3.469 m -169.11,0.64 c -4.33,0 -8.72,-1.109 -12.74,-3.437 L 5258,693.16 5117.03,611.289 c -12.16,-6.969 -16.35,-22.488 -9.37,-34.641 l 0.04,-0.066 c 4.69,-8.172 13.24,-12.742 22.03,-12.742 4.28,0 8.63,1.09 12.61,3.371 l 0.07,0.039 141.13,81.871 c 12.14,7.109 16.24,22.699 9.17,34.867 -4.71,8.102 -13.22,12.621 -21.96,12.621 m 310.09,178.43 c -4.33,0 -8.72,-1.098 -12.74,-3.418 l -140.97,-81.859 c -12.15,-6.981 -16.35,-22.492 -9.37,-34.653 l 0.04,-0.058 c 4.68,-8.211 13.25,-12.821 22.07,-12.821 4.26,0 8.58,1.071 12.54,3.34 l 0.26,0.149 140.97,81.863 c 12.1,7.047 16.27,22.539 9.33,34.707 -4.73,8.18 -13.31,12.75 -22.13,12.75 m -451.11,-0.008 c -8.77,0 -17.29,-4.543 -21.99,-12.679 l -0.04,-0.063 c -7.02,-12.129 -2.87,-27.66 9.26,-34.668 l 0.07,-0.039 140.97,-81.863 c 4,-2.321 8.37,-3.418 12.68,-3.418 8.76,0 17.29,4.551 21.99,12.679 l 0.04,0.071 c 7.05,12.109 2.96,27.648 -9.15,34.699 l -0.02,0.012 -141.13,81.859 c -4,2.309 -8.37,3.41 -12.68,3.41 m 225.53,129.699 c -14.02,0 -25.38,-11.359 -25.38,-25.378 V 816.441 c 0,-14.011 11.36,-25.371 25.38,-25.371 h 0.16 c 14.01,0 25.38,11.36 25.38,25.371 v 162.911 c 0,14.019 -11.37,25.378 -25.38,25.378 h -0.16"
         style="fill:#6c7a7f;fill-opacity:1;fill-rule:nonzero;stroke:none"
         id="path338" />
      <path
         d="m 5355.42,791.07 h -0.16 c -14.02,0 -25.38,11.36 -25.38,25.371 v 162.911 c 0,14.019 11.36,25.378 25.38,25.378 h 0.16 c 14.01,0 25.38,-11.359 25.38,-25.378 V 816.441 c 0,-14.011 -11.37,-25.371 -25.38,-25.371"
         style="fill:#96a1a2;fill-opacity:1;fill-rule:nonzero;stroke:none"
         id="path340" />
      <path
         d="m 5355.42,432.988 h -0.16 c -14.02,0 -25.38,11.371 -25.38,25.383 v 162.91 c 0,14.02 11.36,25.379 25.38,25.379 h 0.16 c 14.01,0 25.38,-11.359 25.38,-25.379 v -162.91 c 0,-14.012 -11.37,-25.383 -25.38,-25.383"
         style="fill:#96a1a2;fill-opacity:1;fill-rule:nonzero;stroke:none"
         id="path342" />
      <path
         d="m 5439.87,742.23 c -8.82,0 -17.39,4.61 -22.07,12.821 l -0.04,0.058 c -6.98,12.161 -2.78,27.672 9.37,34.653 l 140.97,81.859 c 4.02,2.32 8.41,3.418 12.74,3.418 8.82,0 17.4,-4.57 22.13,-12.75 6.94,-12.168 2.77,-27.66 -9.33,-34.707 l -140.97,-81.863 -0.26,-0.149 c -3.96,-2.269 -8.28,-3.34 -12.54,-3.34"
         style="fill:#96a1a2;fill-opacity:1;fill-rule:nonzero;stroke:none"
         id="path344" />
      <path
         d="m 5129.73,563.84 c -8.79,0 -17.34,4.57 -22.03,12.742 l -0.04,0.066 c -6.98,12.153 -2.79,27.672 9.37,34.641 l 140.97,81.871 0.01,0.012 c 4.02,2.328 8.41,3.437 12.74,3.437 8.74,0 17.25,-4.519 21.96,-12.621 7.07,-12.168 2.97,-27.758 -9.17,-34.867 l -141.13,-81.871 -0.07,-0.039 c -3.98,-2.281 -8.33,-3.371 -12.61,-3.371"
         style="fill:#96a1a2;fill-opacity:1;fill-rule:nonzero;stroke:none"
         id="path346" />
      <path
         d="m 5580.84,563.172 c -4.33,0 -8.72,1.109 -12.74,3.43 l -140.97,81.859 c -12.2,7.059 -16.38,22.668 -9.33,34.867 4.75,8.121 13.29,12.641 22.06,12.641 4.36,0 8.77,-1.117 12.81,-3.469 l 140.97,-81.859 c 12.1,-7.051 16.27,-22.539 9.33,-34.711 -4.73,-8.18 -13.31,-12.758 -22.13,-12.758"
         style="fill:#96a1a2;fill-opacity:1;fill-rule:nonzero;stroke:none"
         id="path348" />
      <path
         d="m 5270.68,742.301 c -4.31,0 -8.68,1.097 -12.68,3.418 l -140.97,81.863 -0.07,0.039 c -12.13,7.008 -16.28,22.539 -9.26,34.668 l 0.04,0.063 c 4.7,8.136 13.22,12.679 21.99,12.679 4.31,0 8.68,-1.101 12.68,-3.41 l 141.13,-81.859 0.02,-0.012 c 12.11,-7.051 16.2,-22.59 9.15,-34.699 l -0.04,-0.071 c -4.7,-8.128 -13.23,-12.679 -21.99,-12.679"
         style="fill:#96a1a2;fill-opacity:1;fill-rule:nonzero;stroke:none"
         id="path350" />
      <path
         d="m 5312.68,719.031 c 0,23.508 19.06,42.571 42.57,42.571 h 0.17 c 23.6,0 42.73,-19.141 42.73,-42.743 0,-23.597 -19.13,-42.73 -42.73,-42.73 -23.6,0 -42.74,19.133 -42.74,42.73 v 0.172"
         style="fill:#17282f;fill-opacity:1;fill-rule:nonzero;stroke:none"
         id="path352" />
      <path
         d="m 2000.74,352.289 c -202.44,-202.43 -530.64,-202.43 -733.08,0 -202.43,202.441 -202.43,530.652 0,733.081 202.44,202.43 530.64,202.43 733.08,0 202.43,-202.429 202.43,-530.64 0,-733.081"
         style="fill:#17282f;fill-opacity:1;fill-rule:nonzero;stroke:none"
         id="path354" />
      <path
         d="m 1634.2,401.039 c -81.33,0 -162.66,31.02 -224.71,93.082 -124.11,124.098 -124.11,325.32 0,449.43 62.05,62.049 143.38,93.079 224.71,93.079 81.33,0 162.66,-31.03 224.72,-93.079 124.1,-124.11 124.1,-325.332 0,-449.43 -62.06,-62.062 -143.39,-93.082 -224.72,-93.082 m -0.15,245.621 c -14.01,0 -25.37,-11.359 -25.37,-25.379 v -162.91 c 0,-14.012 11.36,-25.383 25.37,-25.383 h 0.17 c 14.01,0 25.38,11.371 25.38,25.383 v 162.91 c 0,14.02 -11.37,25.379 -25.38,25.379 h -0.17 m 84.67,49.301 c -8.73,0 -17.24,-4.52 -21.95,-12.609 l -0.01,-0.024 c -7.07,-12.156 -2.97,-27.758 9.17,-34.867 l 141.13,-81.859 c 4,-2.321 8.37,-3.422 12.68,-3.422 8.77,0 17.29,4.55 22,12.679 l 0.03,0.071 c 7.02,12.129 2.87,27.66 -9.26,34.672 l -0.07,0.039 -140.97,81.859 c -4.02,2.34 -8.41,3.461 -12.75,3.461 m -169.11,0.66 c -4.36,0 -8.77,-1.109 -12.81,-3.461 l -140.97,-81.871 c -12.16,-6.969 -16.35,-22.488 -9.37,-34.641 l 0.04,-0.066 c 4.73,-8.184 13.31,-12.75 22.13,-12.75 4.33,0 8.72,1.098 12.74,3.418 l 140.97,81.871 c 12.2,7.051 16.38,22.66 9.33,34.867 -4.75,8.114 -13.29,12.633 -22.06,12.633 m -140.98,178.418 c -8.82,0 -17.4,-4.57 -22.13,-12.75 -7.02,-12.129 -2.87,-27.66 9.26,-34.668 l 0.07,-0.039 140.97,-81.863 c 4.03,-2.367 8.44,-3.489 12.8,-3.489 8.72,0 17.2,4.489 21.92,12.559 l 0.15,0.262 c 7.02,12.129 2.87,27.648 -9.26,34.668 l -0.07,0.043 -140.97,81.859 c -4.02,2.32 -8.41,3.418 -12.74,3.418 m 451.11,-0.008 c -4.28,0 -8.63,-1.082 -12.61,-3.371 l -0.07,-0.039 -141.13,-81.859 c -12.12,-7.051 -16.22,-22.582 -9.18,-34.703 l 0.01,-0.008 c 4.64,-8.199 13.18,-12.809 21.97,-12.809 4.21,0 8.47,1.059 12.39,3.27 l 0.35,0.207 140.97,81.863 c 12.16,6.977 16.35,22.488 9.37,34.637 l -0.04,0.07 c -4.69,8.172 -13.24,12.742 -22.03,12.742 m -225.69,129.699 c -14.01,0 -25.37,-11.359 -25.37,-25.378 V 816.441 c 0,-14.011 11.36,-25.371 25.37,-25.371 h 0.17 c 14.01,0 25.38,11.36 25.38,25.371 v 162.911 c 0,14.019 -11.37,25.378 -25.38,25.378 h -0.17"
         style="fill:#6c7a7f;fill-opacity:1;fill-rule:nonzero;stroke:none"
         id="path356" />
      <path
         d="m 1634.22,791.07 h -0.17 c -14.01,0 -25.37,11.36 -25.37,25.371 v 162.911 c 0,14.019 11.36,25.378 25.37,25.378 h 0.17 c 14.01,0 25.38,-11.359 25.38,-25.378 V 816.441 c 0,-14.011 -11.37,-25.371 -25.38,-25.371"
         style="fill:#96a1a2;fill-opacity:1;fill-rule:nonzero;stroke:none"
         id="path358" />
      <path
         d="m 1634.22,432.988 h -0.17 c -14.01,0 -25.37,11.371 -25.37,25.383 v 162.91 c 0,14.02 11.36,25.379 25.37,25.379 h 0.17 c 14.01,0 25.38,-11.359 25.38,-25.379 v -162.91 c 0,-14.012 -11.37,-25.383 -25.38,-25.383"
         style="fill:#96a1a2;fill-opacity:1;fill-rule:nonzero;stroke:none"
         id="path360" />
      <path
         d="m 1718.73,742.242 c -8.79,0 -17.33,4.61 -21.97,12.809 l -0.01,0.008 c -7.04,12.121 -2.94,27.652 9.18,34.703 l 141.13,81.859 0.07,0.039 c 3.98,2.289 8.33,3.371 12.61,3.371 8.79,0 17.34,-4.57 22.03,-12.742 l 0.04,-0.07 c 6.98,-12.149 2.79,-27.66 -9.37,-34.637 l -140.97,-81.863 -0.35,-0.207 c -3.92,-2.211 -8.18,-3.27 -12.39,-3.27"
         style="fill:#96a1a2;fill-opacity:1;fill-rule:nonzero;stroke:none"
         id="path362" />
      <path
         d="m 1408.63,563.832 c -8.82,0 -17.4,4.566 -22.13,12.75 l -0.04,0.066 c -6.98,12.153 -2.79,27.672 9.37,34.641 l 140.97,81.871 c 4.04,2.352 8.45,3.461 12.81,3.461 8.77,0 17.31,-4.519 22.06,-12.633 7.05,-12.207 2.87,-27.816 -9.33,-34.867 L 1421.37,567.25 c -4.02,-2.32 -8.41,-3.418 -12.74,-3.418"
         style="fill:#96a1a2;fill-opacity:1;fill-rule:nonzero;stroke:none"
         id="path364" />
      <path
         d="m 1859.74,563.18 c -4.31,0 -8.68,1.101 -12.68,3.422 l -141.13,81.859 c -12.14,7.109 -16.24,22.711 -9.17,34.867 l 0.01,0.024 c 4.71,8.089 13.22,12.609 21.95,12.609 4.34,0 8.73,-1.121 12.75,-3.461 l 140.97,-81.859 0.07,-0.039 c 12.13,-7.012 16.28,-22.543 9.26,-34.672 l -0.03,-0.071 c -4.71,-8.129 -13.23,-12.679 -22,-12.679"
         style="fill:#96a1a2;fill-opacity:1;fill-rule:nonzero;stroke:none"
         id="path366" />
      <path
         d="m 1549.6,742.23 c -4.36,0 -8.77,1.122 -12.8,3.489 l -140.97,81.863 -0.07,0.039 c -12.13,7.008 -16.28,22.539 -9.26,34.668 4.73,8.18 13.31,12.75 22.13,12.75 4.33,0 8.72,-1.098 12.74,-3.418 l 140.97,-81.859 0.07,-0.043 c 12.13,-7.02 16.28,-22.539 9.26,-34.668 l -0.15,-0.262 c -4.72,-8.07 -13.2,-12.559 -21.92,-12.559"
         style="fill:#96a1a2;fill-opacity:1;fill-rule:nonzero;stroke:none"
         id="path368" />
      <path
         d="m 1634.22,761.602 v 0 c 23.6,0 42.73,-19.141 42.73,-42.743 0,-23.597 -19.13,-42.73 -42.73,-42.73 -23.6,0 -42.74,19.133 -42.74,42.73 0,23.602 19.14,42.743 42.74,42.743"
         style="fill:#17282f;fill-opacity:1;fill-rule:nonzero;stroke:none"
         id="path370" />
      <path
         d="m 6145.46,1695.31 c -2.97,0 -5.95,0.41 -8.85,1.22 l -378.21,114.61 c -5.51,1.68 -10.48,4.79 -14.4,9.01 l -113.14,121.97 c -12.13,13.41 -11.09,34.12 2.33,46.25 5.12,4.64 11.59,7.54 18.46,8.27 l 395.08,37.33 c 0.87,0.07 1.73,0.11 2.59,0.11 14.29,0 27.07,-9.33 31.3,-23.19 66.89,-66.81 90.09,-163.98 96.11,-273.1 5.37,-17.27 -4.27,-35.62 -21.54,-41 -3.16,-0.98 -6.44,-1.48 -9.73,-1.48"
         style="fill:#2d5bb2;fill-opacity:1;fill-rule:nonzero;stroke:none"
         id="path372" />
      <path
         d="m 2211.87,1897.95 c -5.15,-23.74 7.53,-47.66 28.34,-53.43 l 259.76,-72.8 c 23.02,-6.52 42.28,-10.98 72.2,-12.34 l 81.79,5.42 -77.13,416.71 c -178.15,-117 -190.36,-122.34 -350.34,-258.53 -7.27,-6.15 -12.44,-15.01 -14.62,-25.03"
         style="fill:#17282f;fill-opacity:1;fill-rule:nonzero;stroke:none"
         id="path374" />
      <path
         d="m 3904.08,2556.46 -163.19,-711.59 213.46,15.35 97.48,689.59 c -49.95,2.85 -99.2,5.07 -147.75,6.65"
         style="fill:#17282f;fill-opacity:1;fill-rule:nonzero;stroke:none"
         id="path376" />
      <path
         d="m 4581.41,1993.3 299.82,374.52 c 8.63,9.8 14.08,22.65 15.47,36.42 3.37,33.51 -17.71,63.67 -47.08,67.36 -61.43,8.34 -126.79,16.38 -192.16,24.23"
         style="fill:#17282f;fill-opacity:1;fill-rule:nonzero;stroke:none"
         id="path378" />
      <path
         d="m 2448.14,1825.61 c -51.9,-0.61 -94.47,40.97 -95.08,92.87 -0.51,44.14 29.73,82.7 72.72,92.74 l 125.23,29.36 31.86,-209.86 -132.24,-5.04 -2.49,-0.07"
         style="fill:#406fbf;fill-opacity:1;fill-rule:nonzero;stroke:none"
         id="path380" />
      <path
         d="m 2546.21,1829.3 -0.01,0.02 36.67,1.4 -36.66,-1.42 m 36.66,1.42 -31.86,209.86 v 0 l 31.86,-209.86"
         style="fill:#0f191d;fill-opacity:1;fill-rule:nonzero;stroke:none"
         id="path382" />
      <path
         d="m 2546.2,1829.32 -30.95,202.8 35.76,8.46 31.86,-209.86 -36.67,-1.4"
         style="fill:#2d5bb2;fill-opacity:1;fill-rule:nonzero;stroke:none"
         id="path384" />
      <path
         d="m 3784.41,932 c -0.01,0.219 0,0.449 0.05,0.68 0,0 11.93,55.98 29.23,137.27 l 5.26,0.71 C 3802.57,993.68 3790.93,939.031 3789.5,932.328 L 3784.41,932 m 159.41,761.69 c 3.1,29.11 4.24,68 4.24,108.99 0,18.8 -0.24,38.06 -0.63,57.04 l 4.99,0.36 c 0.4,-19.09 0.64,-38.47 0.64,-57.4 -0.01,-40.69 -1.1,-79.27 -4.17,-108.63 l -5.07,-0.36"
         style="fill:#213664;fill-opacity:1;fill-rule:nonzero;stroke:none"
         id="path386" />
      <path
         d="m 3786.91,929.66 c -0.17,0 -0.35,0.02 -0.52,0.051 -1.12,0.238 -1.91,1.199 -1.98,2.289 l 5.09,0.328 c -0.1,-0.457 -0.15,-0.687 -0.15,-0.687 -0.25,-1.18 -1.29,-1.981 -2.44,-1.981"
         style="fill:#0a0d0e;fill-opacity:1;fill-rule:nonzero;stroke:none"
         id="path388" />
      <path
         d="m 3813.69,1069.95 c 12.12,56.98 26.88,126.41 42.02,197.71 36.73,173.02 75.68,357.14 84.52,401.38 1.42,7.05 2.6,15.35 3.59,24.65 l 5.07,0.36 c -1.02,-9.77 -2.26,-18.52 -3.76,-25.99 -12.47,-62.38 -84.58,-401.85 -126.18,-597.4 l -5.26,-0.71"
         style="fill:#1f3c6b;fill-opacity:1;fill-rule:nonzero;stroke:none"
         id="path390" />
      <path
         d="m 3947.43,1859.72 c -0.01,0.13 -0.01,0.27 -0.01,0.4 -0.03,1.38 1.06,2.52 2.45,2.55 0.01,0 0.03,0 0.05,0 1.35,0 2.47,-1.08 2.5,-2.45 0,-0.04 0,-0.09 0,-0.14 l -4.99,-0.36"
         style="fill:#0a0d0e;fill-opacity:1;fill-rule:nonzero;stroke:none"
         id="path392" />
      <path
         d="m 2551.47,834.609 c -4.28,6.352 -89.96,133.192 -161.7,246.071 l 124.71,-186.391 2.75,0.383 c 13.35,-20.031 24.08,-36.024 30.8,-46.012 4.98,-7.39 7.74,-11.48 7.75,-11.488 0.06,-0.094 0.12,-0.184 0.16,-0.281 -0.74,-0.371 -1.49,-0.743 -2.23,-1.129 l -2.24,-1.153 m -234.41,365.161 c -1.53,2.71 -3.01,5.34 -4.42,7.89 -16.01,28.93 -30.3,85.22 -43.05,153.78 -12.72,68.54 -23.77,149.22 -32.86,226.35 -18.18,154.27 -28.5,294.33 -28.5,294.35 -0.1,1.38 0.93,2.57 2.31,2.68 0.06,0 0.12,0 0.18,0 0.02,0 0.04,0 0.05,0 0.26,-5.67 1.48,-11.14 3.51,-16.16 0.71,-9.01 1.76,-22.14 3.16,-38.57 2.77,-32.73 6.86,-78.52 12.14,-130.72 4.02,-39.69 8.72,-83.08 14.06,-127.27 l -3.79,-0.27 36.03,-236.15 c 7.2,-47.16 21.1,-92.92 41.18,-135.91"
         style="fill:#213664;fill-opacity:1;fill-rule:nonzero;stroke:none"
         id="path394" />
      <path
         d="m 2553.71,833.262 c -0.8,0 -1.59,0.386 -2.07,1.109 0,0 -0.06,0.078 -0.17,0.238 l 2.24,1.153 c 0.74,0.386 1.49,0.758 2.23,1.129 0.56,-1.102 0.23,-2.481 -0.83,-3.2 -0.43,-0.293 -0.91,-0.429 -1.4,-0.429"
         style="fill:#0a0d0e;fill-opacity:1;fill-rule:nonzero;stroke:none"
         id="path396" />
      <path
         d="m 2214.28,1868.66 c -2.03,5.02 -3.25,10.49 -3.51,16.16 0.01,0 0.01,0 0.02,0 0.27,-5.58 1.47,-10.97 3.47,-15.92 0.01,-0.08 0.01,-0.16 0.02,-0.24"
         style="fill:#213664;fill-opacity:1;fill-rule:nonzero;stroke:none"
         id="path398" />
      <path
         d="m 2514.48,894.289 -124.71,186.391 c -28.39,44.66 -54.59,87.14 -72.71,119.09 -20.08,42.99 -33.98,88.75 -41.18,135.91 l -36.03,236.15 3.79,0.27 c 8.7,-72.04 19.07,-146.18 30.87,-209.74 12.66,-68.33 27.09,-124.55 42.5,-152.28 43.18,-77.86 144.44,-231.728 200.22,-315.408 l -2.75,-0.383"
         style="fill:#1f3c6b;fill-opacity:1;fill-rule:nonzero;stroke:none"
         id="path400" />
      <path
         d="m 2214.26,1868.9 c -2,4.95 -3.2,10.34 -3.47,15.92 1.27,-0.03 2.33,-1.02 2.42,-2.31 0.01,-0.03 0.36,-4.82 1.05,-13.61"
         style="fill:#0a0d0e;fill-opacity:1;fill-rule:nonzero;stroke:none"
         id="path402" />
      <path
         d="m 822.09,1628.77 v 0 c -0.524,1.28 0.09,2.73 1.367,3.26 131.039,53.56 564.383,158.98 671.403,176.15 113.41,18.16 465.71,103.96 551.94,125.11 3.6,0.88 6.74,1.65 9.37,2.3 4.27,0.03 8.53,0.37 12.74,1.01 0.06,-0.13 0.1,-0.27 0.14,-0.41 0.33,-1.34 -0.49,-2.69 -1.83,-3.03 -0.05,-0.01 -441.4,-109.05 -571.57,-129.92 -105.16,-16.82 -530.943,-120.35 -665.99,-174.1 l -5.258,0.57 -2.312,-0.94"
         style="fill:#213664;fill-opacity:1;fill-rule:nonzero;stroke:none"
         id="path404" />
      <path
         d="m 824.402,1627.21 c -0.984,0 -1.918,0.59 -2.312,1.56 l 2.312,0.94 5.258,-0.57 c -1.472,-0.59 -2.906,-1.17 -4.312,-1.74 -0.309,-0.13 -0.629,-0.19 -0.946,-0.19"
         style="fill:#575a5c;fill-opacity:1;fill-rule:nonzero;stroke:none"
         id="path406" />
      <path
         d="m 2056.17,1935.59 c 6.39,1.57 9.84,2.43 9.85,2.43 0.2,0.05 0.4,0.07 0.6,0.07 0.98,0 1.89,-0.58 2.29,-1.49 -4.21,-0.64 -8.47,-0.98 -12.74,-1.01"
         style="fill:#48515f;fill-opacity:1;fill-rule:nonzero;stroke:none"
         id="path408" />
      <path
         d="m 6104.96,2064.21 h -132.29 c -12,0.03 -23.94,1.63 -35.53,4.75 l -665.88,184.69 c -8.76,2.47 -16.68,7.28 -22.92,13.91 l -54.36,59.11 c -8.31,9.34 -12.4,20.97 -12.41,32.57 -0.02,13.55 5.55,27.05 16.47,36.77 5.7,5.07 12.49,8.74 19.85,10.72 l 208.59,52.23 c -2.32,-4.69 -3.41,-9.66 -3.4,-14.56 0.03,-12.04 6.73,-23.61 18.26,-29.3 l 0.03,-0.02 642.31,-338.1 c 7.36,-3.93 14.41,-8.18 21.28,-12.77"
         style="fill:#cfe0f5;fill-opacity:1;fill-rule:nonzero;stroke:none"
         id="path410" />
      <path
         d="m 2697.1,1970.45 c -5.99,-3.62 -76.69,-76.69 -76.69,-76.69 l 13.79,-90.57 88.89,91.76 -25.99,75.5"
         style="fill:#17282f;fill-opacity:1;fill-rule:nonzero;stroke:none"
         id="path412" />
      <path
         d="m 2803.58,1781.53 v 0 c -15.63,-7.72 -34.55,-1.3 -42.27,14.33 l -141.04,285.77 c -7.71,15.62 -1.3,34.55 14.33,42.26 15.63,7.71 34.55,1.3 42.27,-14.33 l 141.04,-285.77 c 7.71,-15.63 1.29,-34.55 -14.33,-42.26"
         style="fill:#17282f;fill-opacity:1;fill-rule:nonzero;stroke:none"
         id="path414" />
      <path
         d="m 2957.47,2125.5 c 0,0 69.97,-279.14 110.98,-289.68 74.3,-19.09 329.99,2.28 325,10.53 l -10.9,128.4 c 0,0 -257.69,-42.63 -255.69,-38.09 l -97.12,216.95 -72.27,-28.11"
         style="fill:#f8a45d;fill-opacity:1;fill-rule:nonzero;stroke:none"
         id="path416" />
      <path
         d="m 3021.82,2136.75 c 0,0 22.99,21.39 23.62,47.35 0.63,25.95 8.04,46.51 7.18,65.84 -0.86,19.33 -17.04,-1.18 -23.43,-13.83 -6.4,-12.65 -13.77,-26.92 -22.5,-20.58 -8.72,6.34 -46.69,90.97 -59.78,98.38 -13.1,7.42 -11.24,-8.19 -11.24,-8.19 0,0 -9.77,20.3 -18.87,18.62 -2.37,-0.43 -7.15,-5.28 -4.15,-15.23 6.76,-22.39 23.36,-68.64 23.36,-68.64 -0.9,2.67 -25.47,58.3 -30.24,66.15 -6.23,10.26 -14.4,11.92 -20.23,8.12 -8.3,-5.42 19.81,-75.43 18.93,-79.22 0,0 -14.83,40.85 -27.47,42.79 -12.64,1.94 -4.7,-24.28 6.68,-46.07 10.45,-19.98 25.7,-61.9 38.28,-81.18 15.51,-23.76 31.26,-36.23 57.56,-32.2 26.29,4.03 42.3,17.89 42.3,17.89"
         style="fill:#f8a45d;fill-opacity:1;fill-rule:nonzero;stroke:none"
         id="path418" />
      <path
         d="m 2957.87,2251.77 -1.58,0.77 c -5.89,17.04 -12.55,33.81 -19.96,50.25 l 0.63,1.65 1.65,-0.62 c 7.44,-16.51 14.13,-33.35 20.04,-50.46 l -0.78,-1.59 m -21.54,51.02 v 0 0 0"
         style="fill:#a66f42;fill-opacity:1;fill-rule:nonzero;stroke:none"
         id="path420" />
      <path
         d="m 2910.48,2218.5 -1.75,0.17 0.16,1.76 c 18.21,14.99 40.88,24.47 64.35,26.88 l 1.37,-1.12 -1.12,-1.37 c -22.96,-2.36 -45.19,-11.64 -63.01,-26.32"
         style="fill:#a66f42;fill-opacity:1;fill-rule:nonzero;stroke:none"
         id="path422" />
      <path
         d="m 2985.55,2154.08 -1.63,0.69 c -2.06,5.08 -3.09,10.55 -3.09,16.02 0,4.32 0.64,8.64 1.95,12.77 2.96,9.35 9.25,17.58 17.49,22.89 l 1.73,-0.37 -0.38,-1.73 c -7.74,-4.98 -13.68,-12.76 -16.46,-21.55 -1.22,-3.87 -1.83,-7.94 -1.83,-12.01 0,-5.16 0.97,-10.31 2.91,-15.08 l -0.69,-1.63"
         style="fill:#a66f42;fill-opacity:1;fill-rule:nonzero;stroke:none"
         id="path424" />
      <path
         d="m 3687.4,1994.03 c -46.81,61.81 -121.09,55.62 -169.35,47.14 l -95.69,-15.76 c -3.03,-0.5 -6.02,-1.21 -8.94,-2.12 l -21.84,-6.79 -204.64,-65.55 49.39,-131.03 66.83,8.19 -11.14,-18.07 65.63,4.19 v 0 l 358.06,18.67 0.01,0.01 0.01,72.67 c 0.01,31.72 -9.19,63.17 -28.33,88.45"
         style="fill:#17282f;fill-opacity:1;fill-rule:nonzero;stroke:none"
         id="path426" />
      <path
         d="m 3668.04,1890.93 c 0,0 -44.95,-301.12 -76.69,-333 -75.85,-76.2 -356.52,133.41 -356.52,133.41 l 8.67,80.92 242.44,-100.39 45.38,255.74 136.72,-36.68"
         style="fill:#f8a45d;fill-opacity:1;fill-rule:nonzero;stroke:none"
         id="path428" />
      <path
         d="m 3704.93,1911.45 c -2.19,-7.45 -21.56,-217.46 -21.56,-217.46 l -205.6,19.15 c 0,0 10.72,58.32 26.28,160.34 16.2,106.22 25.68,159.91 78.33,168.56 99.75,16.38 122.55,-130.59 122.55,-130.59"
         style="fill:#17282f;fill-opacity:1;fill-rule:nonzero;stroke:none"
         id="path430" />
      <path
         d="m 3636.02,2387.11 c 30.99,-54.36 41.79,-86.9 44.6,-139.02 3.28,-60.93 0.51,-114.71 -13.07,-130.32 -17.84,-20.49 -210.66,-39.72 -318.7,-35.33 -3.92,0.16 -7.16,34.45 -7.16,34.45 0,0 -15.32,-33.5 -20.4,-33.27 -29.48,1.34 -48.38,2.43 -48.38,2.43 0,0 24.44,50.31 54.4,231.79 14.63,88.64 103.79,124.02 156.31,130.69 87.55,11.11 152.4,-61.42 152.4,-61.42"
         style="fill:#17282f;fill-opacity:1;fill-rule:nonzero;stroke:none"
         id="path432" />
      <path
         d="m 3379.08,2215.91 c -28.29,48.91 -56.35,180.71 61.48,221.37 147.09,50.75 212.97,-43.07 225.61,-136.02 12.66,-92.96 -39.76,-163.21 -136.95,-156.17 -97.2,7.04 -130.58,36.99 -150.14,70.82"
         style="fill:#17282f;fill-opacity:1;fill-rule:nonzero;stroke:none"
         id="path434" />
      <path
         d="m 3583.3,2209.31 -86.9,-79.93 -16.74,-17.82 c 4.64,-12.6 8.51,-25.52 9.85,-37.94 2.63,-21.9 -10.92,-38.42 -10.92,-38.42 l -19.49,-44.34 c 43.5,34.11 142.64,52.34 142.64,52.34 -16.25,56.89 -23.11,110.26 -18.44,166.11"
         style="fill:#f8a45d;fill-opacity:1;fill-rule:nonzero;stroke:none"
         id="path436" />
      <path
         d="m 3489.8,2069.96 c -0.91,6.62 -1.65,11.57 -2.49,15.95 0.05,0 0.09,0.01 0.14,0.01 0.92,-4.13 1.62,-8.24 2.06,-12.3 0.15,-1.23 0.24,-2.46 0.29,-3.66"
         style="fill:#a0afc8;fill-opacity:1;fill-rule:nonzero;stroke:none"
         id="path438" />
      <path
         d="m 3487.31,2085.91 c -0.4,2.04 -0.81,3.96 -1.29,5.87 0.52,-1.96 1,-3.91 1.43,-5.86 -0.05,0 -0.09,-0.01 -0.14,-0.01 m -3.84,14.61 c -0.01,0.03 -0.02,0.06 -0.03,0.09 v 0 c 0.01,-0.03 0.02,-0.06 0.03,-0.09"
         style="fill:#111d23;fill-opacity:1;fill-rule:nonzero;stroke:none"
         id="path440" />
      <path
         d="m 3489.96,2068.82 c -0.05,0.39 -0.1,0.77 -0.16,1.14 -0.05,1.2 -0.14,2.43 -0.29,3.66 -0.44,4.06 -1.14,8.17 -2.06,12.3 -0.43,1.95 -0.91,3.9 -1.43,5.86 -0.7,2.82 -1.52,5.61 -2.55,8.74 -0.01,0.03 -0.02,0.06 -0.03,0.09 18.42,3.12 37.04,10.85 54.27,23.62 -2.34,-24.1 -26.18,-43.92 -47.75,-55.41"
         style="fill:#c4824c;fill-opacity:1;fill-rule:nonzero;stroke:none"
         id="path442" />
      <path
         d="m 3610.97,2298.11 c -11.77,-84.94 -14.95,-121.04 -61.05,-163.73 -69.32,-64.2 -170.14,-36.85 -183.75,48.51 -12.26,76.84 9.05,202.83 94.45,234.79 84.14,31.49 162.12,-34.64 150.35,-119.57"
         style="fill:#f8a45d;fill-opacity:1;fill-rule:nonzero;stroke:none"
         id="path444" />
      <path
         d="m 3502.59,2272.16 c -0.88,-8.57 -6.49,-15.39 -12.53,-15.23 -6.04,0.15 -10.23,7.22 -9.35,15.79 0.88,8.57 6.48,15.39 12.52,15.24 6.04,-0.16 10.23,-7.23 9.36,-15.8"
         style="fill:#17282f;fill-opacity:1;fill-rule:nonzero;stroke:none"
         id="path446" />
      <path
         d="m 3413.98,2277.83 c -0.85,-8.18 -6.35,-14.68 -12.29,-14.54 -5.93,0.16 -10.05,6.91 -9.19,15.09 0.85,8.17 6.36,14.68 12.29,14.53 5.93,-0.14 10.05,-6.9 9.19,-15.08"
         style="fill:#17282f;fill-opacity:1;fill-rule:nonzero;stroke:none"
         id="path448" />
      <path
         d="m 3516.11,2303.1 c -1.18,-0.18 -2.39,0.08 -3.33,0.82 -14.64,11.51 -30.61,6.46 -30.79,6.41 -2.37,-0.76 -4.82,0.37 -5.43,2.59 -0.6,2.21 0.84,4.63 3.24,5.42 0.84,0.27 20.88,6.62 39.05,-7.67 1.81,-1.43 1.92,-4.09 0.25,-5.96 -0.81,-0.9 -1.89,-1.45 -2.99,-1.61"
         style="fill:#17282f;fill-opacity:1;fill-rule:nonzero;stroke:none"
         id="path450" />
      <path
         d="m 3385.73,2320.65 c -0.92,0.49 -1.64,1.3 -1.94,2.32 -0.63,2.13 0.73,4.39 3.02,5.05 22.98,6.63 38.01,-5.07 38.64,-5.58 1.78,-1.42 1.94,-3.96 0.36,-5.68 -1.58,-1.71 -4.29,-1.95 -6.07,-0.54 -0.59,0.47 -12.38,9.37 -30.66,4.1 -1.18,-0.34 -2.38,-0.19 -3.35,0.33"
         style="fill:#17282f;fill-opacity:1;fill-rule:nonzero;stroke:none"
         id="path452" />
      <path
         d="m 3543.22,2377.26 c -28.46,-27.24 -19.96,-135.52 55.57,-153.11 88.72,16.58 29.37,234.41 -55.57,153.11"
         style="fill:#17282f;fill-opacity:1;fill-rule:nonzero;stroke:none"
         id="path454" />
      <path
         d="m 3432.77,2197.12 c 6.45,-11.01 13.84,-32.11 13.84,-32.11 2.03,0.33 4.07,0.65 6.07,1.08 27.45,5.1 38.51,16.53 42.43,27.66 2.13,6.09 2.05,12.16 1.34,16.99 -0.75,5.59 -2.56,9.41 -2.56,9.41 -12.94,-11.4 -38.16,-18.12 -51.79,-21.15 -5.69,-1.32 -9.33,-1.88 -9.33,-1.88"
         style="fill:#17282f;fill-opacity:1;fill-rule:nonzero;stroke:none"
         id="path456" />
      <path
         d="m 3442.1,2199 4.33,-9.36 c 25.84,4.87 43.39,11.76 50.02,21.1 -0.75,5.59 -2.56,9.41 -2.56,9.41 -12.94,-11.4 -38.16,-18.12 -51.79,-21.15"
         style="fill:#ffffff;fill-opacity:1;fill-rule:nonzero;stroke:none"
         id="path458" />
      <path
         d="m 3452.68,2166.09 c 27.45,5.1 38.51,16.53 42.43,27.66 -9.28,-2.1 -20.25,-5.66 -29.36,-11.7 -6.98,-4.59 -10.83,-10.39 -13.07,-15.96"
         style="fill:#f14553;fill-opacity:1;fill-rule:nonzero;stroke:none"
         id="path460" />
      <path
         d="m 3438.17,2282.72 c 0,0 -17.85,-37.7 -35.49,-55.74 10.42,-11.05 30.15,-6.41 30.15,-6.41 l 5.34,62.15"
         style="fill:#f57734;fill-opacity:1;fill-rule:nonzero;stroke:none"
         id="path462" />
      <path
         d="m 3476.4,2292.8 19.37,-5.53 c -9.34,-9.56 -19.37,5.53 -19.37,5.53"
         style="fill:#17282f;fill-opacity:1;fill-rule:nonzero;stroke:none"
         id="path464" />
      <path
         d="m 3388.95,2297.71 19.37,-5.53 c -9.34,-9.56 -19.37,5.53 -19.37,5.53"
         style="fill:#17282f;fill-opacity:1;fill-rule:nonzero;stroke:none"
         id="path466" />
      <path
         d="m 3462.06,2435.94 c -34.21,-9.87 -72.7,-66.5 -79.7,-88.66 47.54,-10.06 178.74,28.83 178.74,28.83 0,0 85.06,-27.8 43.44,17.91 -41.62,45.72 -142.48,41.92 -142.48,41.92"
         style="fill:#17282f;fill-opacity:1;fill-rule:nonzero;stroke:none"
         id="path468" />
      <path
         d="m 3633.55,2227.39 c -10.88,-17.03 -27.76,-27.25 -42.95,-30.32 -22.84,-4.62 -32.82,32.23 -24.06,54.49 7.88,20.04 30.69,32.49 52.46,27.03 21.45,-5.37 27,-31.73 14.55,-51.2"
         style="fill:#f8a45d;fill-opacity:1;fill-rule:nonzero;stroke:none"
         id="path470" />
      <path
         d="m 3337.83,2334.1 c -6.54,-37.33 -13.16,-74.81 -27.35,-109.57 -7.15,-17.53 -18.12,-44.32 -31.32,-69.1 -13.15,-24.77 -28.7,-47.5 -44.12,-56.72 l 2.58,-4.28 c 17.04,10.34 32.56,33.58 45.95,58.65 13.35,25.07 24.38,52.01 31.54,69.57 14.45,35.42 21.1,73.26 27.65,110.58 l -4.93,0.87"
         style="fill:#17282f;fill-opacity:1;fill-rule:nonzero;stroke:none"
         id="path472" />
      <path
         d="m 3583.85,2199.62 c -0.4,-8.78 6.39,-16.23 15.17,-16.64 8.79,-0.41 16.24,6.38 16.65,15.17 0.4,8.78 -6.39,16.23 -15.17,16.64 -8.79,0.41 -16.24,-6.38 -16.65,-15.17"
         style="fill:#406fbf;fill-opacity:1;fill-rule:nonzero;stroke:none"
         id="path474" />
      <path
         d="m 3582.8,2227.54 c -0.07,0 -0.13,0 -0.2,0.01 -1.38,0.11 -2.41,1.32 -2.29,2.69 0.7,8.6 5.46,16.65 12.64,21.42 4.68,3.09 10.23,4.67 15.79,4.68 3,0 6,-0.47 8.87,-1.42 1.31,-0.44 2.02,-1.85 1.58,-3.16 -0.35,-1.05 -1.32,-1.71 -2.37,-1.71 -0.26,0 -0.53,0.04 -0.79,0.12 -2.33,0.78 -4.8,1.17 -7.29,1.17 0,0 0,0 -0.01,0 -4.6,0 -9.22,-1.33 -13.02,-3.85 -5.86,-3.87 -9.87,-10.65 -10.42,-17.65 -0.11,-1.31 -1.2,-2.3 -2.49,-2.3"
         style="fill:#e09454;fill-opacity:1;fill-rule:nonzero;stroke:none"
         id="path476" />
      <path
         d="m 3338.87,1716.24 -95.37,56.02 -26.01,33.29 c 0,0 -26.76,31.64 -48.38,33.67 -15.43,1.44 -31.39,-6.55 -31.39,-6.55 0,0 -25.04,-15.84 -9.7,-39.59 0,0 -24.77,-12.76 -7.9,-40.38 0,0 -23.68,-0.41 -3.46,-25.21 20.23,-24.8 44.19,-29.73 63.22,-32.65 19.04,-2.91 41.94,3.72 41.94,3.72 l 105.29,-69.2 11.76,86.88"
         style="fill:#f8a45d;fill-opacity:1;fill-rule:nonzero;stroke:none"
         id="path478" />
      <path
         d="m 3495.76,1821.15 17.25,107.85 -52.49,-109.08 35.24,1.23"
         style="fill:#040606;fill-opacity:1;fill-rule:nonzero;stroke:none"
         id="path480" />
      <path
         d="m 3303.16,1828.11 42.91,87.13 -82.39,-91.96 z"
         style="fill:#040606;fill-opacity:1;fill-rule:nonzero;stroke:none"
         id="path482" />
    </g>
  </g>
</svg>
