<svg width="106" height="24" viewBox="0 0 106 24" fill="none" xmlns="http://www.w3.org/2000/svg">
<path d="M7.93828 23.3362C7.91868 23.3362 7.89937 23.3315 7.88196 23.3225C7.86455 23.3135 7.84953 23.3005 7.83817 23.2845L0.519572 12.9203C0.507146 12.9027 0.499564 12.8822 0.497588 12.8607C0.495612 12.8393 0.499312 12.8177 0.508315 12.7981L5.809 1.26692C5.81797 1.24734 5.83194 1.23048 5.84952 1.21804C5.8671 1.20561 5.88765 1.19803 5.90909 1.19608L18.528 0.0289268C18.5496 0.0263179 18.5714 0.029738 18.591 0.0388039C18.6107 0.0478697 18.6275 0.0622245 18.6394 0.0802661L25.9581 10.4443C25.9705 10.4619 25.9781 10.4825 25.98 10.5039C25.982 10.5254 25.9783 10.5469 25.9693 10.5665L20.6688 22.0981C20.6598 22.1176 20.6458 22.1344 20.6282 22.1468C20.6106 22.1593 20.5901 22.1669 20.5687 22.1689L7.94955 23.3359C7.94584 23.3362 7.94199 23.3362 7.93828 23.3362ZM0.760665 12.8365L7.99749 23.085L20.4756 21.931L25.717 10.5282L18.4801 0.279595L6.00215 1.43357L0.760665 12.8365Z" fill="white"/>
<path d="M7.89448 23.3098L5.86903 12.7646L5.85913 1.23608L15.7273 4.1407L25.9601 10.5066L18.3602 17.2621L7.89448 23.3098ZM5.98196 1.40001L5.9905 12.7529L7.98241 23.1175L18.2888 17.1632L25.7561 10.5237L15.6696 4.24917L5.98196 1.40001Z" fill="white"/>
<path d="M15.8892 4.62415C16.0922 4.62415 16.2567 4.45962 16.2567 4.25666C16.2567 4.05369 16.0922 3.88916 15.8892 3.88916C15.6863 3.88916 15.5217 4.05369 15.5217 4.25666C15.5217 4.45962 15.6863 4.62415 15.8892 4.62415Z" fill="white"/>
<path d="M15.8892 5.01485C15.7392 5.015 15.5925 4.97066 15.4677 4.88743C15.3429 4.80421 15.2456 4.68584 15.1881 4.5473C15.1306 4.40876 15.1154 4.25627 15.1446 4.10913C15.1738 3.96199 15.2459 3.82681 15.3519 3.72068C15.4579 3.61456 15.593 3.54226 15.7401 3.51293C15.8873 3.4836 16.0398 3.49856 16.1784 3.55591C16.317 3.61327 16.4354 3.71045 16.5188 3.83515C16.6022 3.95986 16.6467 4.10648 16.6467 4.25649C16.6465 4.45743 16.5667 4.65011 16.4247 4.79227C16.2827 4.93444 16.0901 5.01448 15.8892 5.01485ZM15.8892 4.23458L15.8664 4.25648C15.8665 4.26242 15.869 4.26807 15.8732 4.2722C15.8775 4.27633 15.8832 4.27861 15.8892 4.27854V4.23458Z" fill="white"/>
<path d="M18.3426 17.5617C18.5456 17.5617 18.7101 17.3971 18.7101 17.1942C18.7101 16.9912 18.5456 16.8267 18.3426 16.8267C18.1396 16.8267 17.9751 16.9912 17.9751 17.1942C17.9751 17.3971 18.1396 17.5617 18.3426 17.5617Z" fill="white"/>
<path d="M18.3426 17.9528C18.1925 17.9529 18.0458 17.9085 17.921 17.8253C17.7962 17.742 17.6989 17.6237 17.6414 17.4851C17.5839 17.3465 17.5688 17.194 17.598 17.0469C17.6272 16.8997 17.6993 16.7645 17.8054 16.6584C17.9114 16.5523 18.0465 16.48 18.1937 16.4507C18.3408 16.4213 18.4933 16.4363 18.6319 16.4937C18.7705 16.5511 18.889 16.6483 18.9724 16.773C19.0557 16.8977 19.1002 17.0444 19.1002 17.1944C19.1001 17.3954 19.0203 17.5881 18.8782 17.7303C18.7362 17.8725 18.5435 17.9525 18.3426 17.9528ZM18.3426 17.1725L18.32 17.1944C18.3201 17.2003 18.3225 17.2059 18.3267 17.21C18.331 17.2141 18.3367 17.2164 18.3426 17.2163V17.1725Z" fill="white"/>
<path d="M8.02814 23.5812C8.2311 23.5812 8.39564 23.4167 8.39564 23.2137C8.39564 23.0107 8.2311 22.8462 8.02814 22.8462C7.82518 22.8462 7.66064 23.0107 7.66064 23.2137C7.66064 23.4167 7.82518 23.5812 8.02814 23.5812Z" fill="white"/>
<path d="M8.02809 23.9721C7.87807 23.9722 7.73139 23.9278 7.60658 23.8446C7.48178 23.7613 7.38447 23.6429 7.32697 23.5044C7.26946 23.3658 7.25435 23.2133 7.28353 23.0662C7.31272 22.919 7.38489 22.7838 7.49092 22.6777C7.59695 22.5716 7.73208 22.4993 7.87921 22.4699C8.02634 22.4406 8.17885 22.4556 8.31747 22.513C8.45608 22.5704 8.57456 22.6676 8.65792 22.7923C8.74128 22.917 8.78578 23.0637 8.78578 23.2137C8.78567 23.4147 8.70582 23.6074 8.56377 23.7496C8.42172 23.8918 8.22907 23.9718 8.02809 23.9721ZM8.02809 23.1918L8.00552 23.2137C8.00563 23.2196 8.00806 23.2252 8.01229 23.2293C8.01652 23.2334 8.0222 23.2356 8.02809 23.2356V23.1918Z" fill="white"/>
<path d="M5.92023 13.243C6.12319 13.243 6.28773 13.0785 6.28773 12.8756C6.28773 12.6726 6.12319 12.5081 5.92023 12.5081C5.71727 12.5081 5.55273 12.6726 5.55273 12.8756C5.55273 13.0785 5.71727 13.243 5.92023 13.243Z" fill="white"/>
<path d="M5.9205 13.6338C5.77051 13.634 5.62384 13.5896 5.49907 13.5064C5.37429 13.4231 5.277 13.3048 5.21952 13.1662C5.16203 13.0277 5.14693 12.8752 5.17612 12.7281C5.20531 12.5809 5.27748 12.4458 5.38351 12.3397C5.48954 12.2336 5.62465 12.1613 5.77176 12.132C5.91886 12.1027 6.07135 12.1177 6.20993 12.1751C6.34851 12.2325 6.46695 12.3297 6.55027 12.4545C6.63359 12.5792 6.67805 12.7258 6.67801 12.8758C6.67779 13.0767 6.59793 13.2693 6.45593 13.4114C6.31393 13.5535 6.12138 13.6335 5.9205 13.6338ZM5.9205 12.8536L5.89774 12.8758C5.89792 12.8817 5.9004 12.8873 5.90465 12.8914C5.90891 12.8955 5.9146 12.8977 5.9205 12.8977V12.8536Z" fill="white"/>
<path d="M25.858 10.901C26.0609 10.901 26.2255 10.7365 26.2255 10.5335C26.2255 10.3305 26.0609 10.166 25.858 10.166C25.655 10.166 25.4905 10.3305 25.4905 10.5335C25.4905 10.7365 25.655 10.901 25.858 10.901Z" fill="white"/>
<path d="M25.8581 11.2918C25.7081 11.2919 25.5614 11.2475 25.4367 11.1642C25.3119 11.081 25.2147 10.9626 25.1572 10.8241C25.0998 10.6855 25.0847 10.533 25.1139 10.3859C25.1431 10.2388 25.2153 10.1037 25.3213 9.99758C25.4273 9.8915 25.5625 9.81925 25.7096 9.78998C25.8567 9.7607 26.0091 9.77571 26.1477 9.8331C26.2863 9.8905 26.4047 9.98771 26.488 10.1124C26.5713 10.2371 26.6158 10.3838 26.6158 10.5338C26.6155 10.7347 26.5357 10.9273 26.3936 11.0694C26.2516 11.2115 26.059 11.2915 25.8581 11.2918ZM25.8581 10.5115L25.8355 10.5338C25.8356 10.5397 25.838 10.5453 25.8423 10.5494C25.8465 10.5535 25.8522 10.5557 25.8581 10.5557V10.5115Z" fill="white"/>
<path d="M5.92023 1.68568C6.12319 1.68568 6.28773 1.52114 6.28773 1.31818C6.28773 1.11522 6.12319 0.950684 5.92023 0.950684C5.71727 0.950684 5.55273 1.11522 5.55273 1.31818C5.55273 1.52114 5.71727 1.68568 5.92023 1.68568Z" fill="white"/>
<path d="M5.92043 2.07638C5.77042 2.07653 5.62375 2.03219 5.49895 1.94896C5.37415 1.86574 5.27684 1.74737 5.21933 1.60883C5.16181 1.47029 5.14668 1.31781 5.17585 1.17067C5.20501 1.02352 5.27716 0.888339 5.38317 0.782211C5.48918 0.676083 5.62428 0.603782 5.77139 0.574452C5.9185 0.545121 6.071 0.560081 6.2096 0.617438C6.34821 0.674795 6.46669 0.771971 6.55005 0.896676C6.63342 1.02138 6.67792 1.16801 6.67794 1.31801C6.67779 1.51895 6.59796 1.71163 6.45596 1.85379C6.31395 1.99596 6.12136 2.076 5.92043 2.07638ZM5.92043 1.29611L5.89765 1.31802C5.89777 1.32395 5.90023 1.3296 5.90449 1.33373C5.90875 1.33786 5.91448 1.34014 5.92041 1.34007L5.92043 1.29611Z" fill="white"/>
<path d="M20.5575 22.1691C20.5436 22.1692 20.5297 22.1669 20.5166 22.1623L10.895 18.7657L0.559652 12.9561C0.54275 12.9467 0.528338 12.9333 0.517598 12.9172C0.506859 12.9011 0.500101 12.8827 0.497878 12.8634C0.495656 12.8442 0.498033 12.8247 0.504815 12.8065C0.511597 12.7884 0.52259 12.7721 0.536889 12.759L8.3129 5.63359L18.4804 0.043375C18.497 0.0341539 18.5155 0.0289504 18.5345 0.0281771C18.5535 0.0274038 18.5724 0.0310831 18.5897 0.0389225C18.607 0.0467479 18.6223 0.0584644 18.6343 0.0731574C18.6463 0.0878504 18.6548 0.105123 18.659 0.123626L20.937 10.1381L20.68 22.0494C20.6796 22.0687 20.6745 22.0877 20.6653 22.1048C20.6562 22.1219 20.6431 22.1365 20.6271 22.1476C20.6067 22.1617 20.5824 22.1692 20.5575 22.1691ZM0.827275 12.8254L10.9959 18.5433L20.4386 21.8748L20.6949 10.1625L18.4559 0.336456L8.45475 5.83137L0.827275 12.8254Z" fill="white"/>
<path d="M18.3824 17.2405L18.3323 17.2233L5.86011 12.8874L5.90031 12.8525L15.9093 4.19849L18.3824 17.2405ZM5.98057 12.8641L18.3023 17.148L15.869 4.3145L5.98057 12.8641Z" fill="white"/>
<path d="M10.8562 18.88L8.23389 5.53589L21.0574 10.1208L10.8562 18.88ZM8.55763 5.912L11.0157 18.4201L20.5775 10.2098L8.55763 5.912Z" fill="white"/>
<path d="M6.02735 1.25802L5.81348 1.37817L8.28878 5.78413L8.50265 5.66398L6.02735 1.25802Z" fill="white"/>
<path d="M7.9248 23.1477L10.8327 18.584L11.0394 18.7163L8.13152 23.2798L7.9248 23.1477Z" fill="white"/>
<path d="M20.8265 10.0432L20.8086 10.2876L25.8492 10.6558L25.8671 10.4114L20.8265 10.0432Z" fill="white"/>
<path d="M30.6401 8.52831L32.2802 8.51931L32.295 11.2925L35.4809 11.2756L35.4661 8.5024L37.1061 8.4939L37.1452 15.9319L35.5052 15.9404L35.4883 12.7259L32.3024 12.7428L32.3193 15.9573L30.6792 15.9663L30.6401 8.52831Z" fill="white"/>
<path d="M40.3671 12.7421L37.5474 8.49168L39.5869 8.48057L41.1789 11.2564L42.8358 8.46365L44.7808 8.45361L42.0071 12.7336L42.0235 15.9064L40.3834 15.9149L40.3671 12.7421Z" fill="white"/>
<path d="M45.2222 8.4511L47.9874 8.43684C48.3545 8.43285 48.7211 8.46615 49.0815 8.5362C49.4022 8.59549 49.7083 8.71686 49.9826 8.89349C50.2423 9.06775 50.4533 9.30531 50.5957 9.58374C50.7593 9.92559 50.8389 10.3016 50.8277 10.6804C50.8413 11.0558 50.7714 11.4294 50.6232 11.7745C50.4954 12.0554 50.2975 12.2987 50.0487 12.4811C49.7872 12.6652 49.4907 12.7936 49.1777 12.8585C48.8186 12.9365 48.4521 12.9755 48.0846 12.9748L46.886 12.9811L46.9013 15.8806L45.2613 15.8891L45.2222 8.4511ZM46.8791 11.5943L47.9726 11.5885C48.1156 11.5883 48.2581 11.5736 48.3981 11.5446C48.528 11.5183 48.6523 11.4694 48.7654 11.4003C48.8743 11.3325 48.9641 11.2381 49.0265 11.126C49.0968 10.9916 49.1305 10.841 49.1243 10.6894C49.1311 10.5268 49.0841 10.3665 48.9905 10.2333C48.9018 10.1177 48.7855 10.0261 48.6523 9.96693C48.5072 9.90281 48.3526 9.86282 48.1946 9.84854C48.0339 9.83243 47.8725 9.82467 47.711 9.82528L46.8696 9.82948L46.8791 11.5943Z" fill="white"/>
<path d="M51.804 8.4168L56.8609 8.39038L56.8688 9.90302L53.4519 9.92098L53.4593 11.3078L56.687 11.2904L56.6949 12.803L53.4672 12.8205L53.4751 14.3337L57.0812 14.3146L57.0891 15.8273L51.8429 15.8547L51.804 8.4168Z" fill="white"/>
<path d="M58.2588 8.38279L61.1398 8.36746C61.5017 8.36372 61.863 8.3988 62.2175 8.4721C62.5363 8.53539 62.8402 8.65841 63.1133 8.83467C63.373 9.00894 63.584 9.2465 63.7264 9.52493C63.8893 9.86327 63.9689 10.2357 63.9584 10.6111C63.9749 11.0905 63.8332 11.562 63.5552 11.953C63.2637 12.3346 62.8351 12.5875 62.3602 12.658L64.2692 15.789L62.3031 15.7996L60.7323 12.8346L59.9226 12.8388L59.9379 15.8117L58.2979 15.8207L58.2588 8.38279ZM59.9152 11.4519L60.8829 11.4471C61.0299 11.4461 61.1858 11.4402 61.3507 11.4287C61.5035 11.4198 61.654 11.3872 61.7967 11.3319C61.9271 11.2803 62.0411 11.1942 62.1265 11.083C62.2207 10.944 62.2659 10.7775 62.255 10.61C62.2621 10.4511 62.221 10.2937 62.1371 10.1586C62.0623 10.0493 61.9605 9.96123 61.8417 9.90279C61.7122 9.841 61.5735 9.80083 61.431 9.78387C61.281 9.76406 61.1299 9.75453 60.9786 9.75534L59.9062 9.76064L59.9152 11.4519Z" fill="white"/>
<path d="M65.0293 8.34688L66.6693 8.33838L66.7005 14.2637L69.739 14.2479L69.7469 15.7605L65.0684 15.7848L65.0293 8.34688Z" fill="white"/>
<path d="M70.5698 8.31792L75.6268 8.2915L75.6347 9.80415L72.2177 9.82211L72.2251 11.209L75.4529 11.1921L75.4608 12.7047L72.233 12.7216L72.2409 14.2348L75.8471 14.2157L75.855 15.7284L70.6088 15.7559L70.5698 8.31792Z" fill="white"/>
<path d="M77.0247 8.28406L79.4849 8.27084C80.057 8.26526 80.6276 8.32915 81.1842 8.46112C81.6911 8.57827 82.1695 8.79572 82.5911 9.10063C82.9983 9.40346 83.3267 9.7997 83.5488 10.256C83.8006 10.7979 83.9241 11.3906 83.9098 11.988C83.9243 12.5379 83.8101 13.0836 83.5763 13.5815C83.36 14.0301 83.0483 14.4261 82.663 14.7416C82.2677 15.0613 81.8162 15.3042 81.3316 15.4578C80.8189 15.623 80.2836 15.7074 79.745 15.7077L77.0638 15.722L77.0247 8.28406ZM78.6959 14.2009L79.5478 14.1961C79.9033 14.1968 80.2577 14.1561 80.6038 14.0751C80.9091 14.0055 81.1965 13.8732 81.4479 13.6866C81.69 13.5015 81.8821 13.2587 82.0065 12.9805C82.1507 12.6436 82.2189 12.2791 82.2063 11.9129C82.2124 11.5841 82.1403 11.2586 81.996 10.9631C81.8646 10.7018 81.6744 10.4744 81.4405 10.2988C81.1953 10.1186 80.9182 9.98642 80.6239 9.90924C80.3034 9.82223 79.9724 9.77973 79.6403 9.78292L78.6726 9.78822L78.6959 14.2009Z" fill="white"/>
<path d="M91.6756 15.1195C91.1993 15.372 90.691 15.5586 90.1645 15.6745C89.6362 15.7894 89.0973 15.8486 88.5567 15.851C88.0086 15.8592 87.4634 15.7696 86.9468 15.5862C86.4729 15.4174 86.0386 15.1532 85.671 14.8098C85.3058 14.4646 85.0184 14.0455 84.828 13.5804C84.423 12.5408 84.4169 11.3881 84.8111 10.3443C84.9967 9.87717 85.2796 9.45488 85.6408 9.10539C86.005 8.75831 86.4366 8.48973 86.9088 8.3163C87.4231 8.12677 87.9674 8.03135 88.5155 8.0346C89.0712 8.02631 89.6253 8.09569 90.1619 8.24072C90.6552 8.37696 91.109 8.62859 91.4858 8.97485L90.3357 10.2417C90.12 10.0186 89.8615 9.84115 89.5757 9.72006C89.24 9.59293 88.8822 9.53417 88.5234 9.54723C88.1976 9.54411 87.8744 9.60648 87.5731 9.73063C87.2981 9.84576 87.05 10.0169 86.8448 10.2333C86.6396 10.4538 86.4819 10.7141 86.3813 10.998C86.1672 11.6197 86.1707 12.2956 86.3913 12.915C86.4958 13.1956 86.6562 13.452 86.8628 13.6687C87.0701 13.8833 87.3199 14.0522 87.5964 14.1644C87.8991 14.2851 88.2229 14.344 88.5488 14.3378C88.8616 14.3421 89.1734 14.2997 89.4737 14.212C89.6875 14.149 89.8946 14.0652 90.0921 13.962L90.0858 12.7538L88.7507 12.7607L88.7428 11.2475L91.655 11.2322L91.6756 15.1195Z" fill="white"/>
<path d="M93.0374 8.20005L98.0943 8.1731L98.1023 9.68574L94.6854 9.7037L94.6928 11.0906L97.9205 11.0736L97.9285 12.5863L94.7008 12.6032L94.7087 14.1164L98.3148 14.0973L98.3228 15.61L93.0767 15.638L93.0374 8.20005Z" fill="white"/>
<path d="M99.4924 8.16574L102.373 8.15094C102.735 8.14696 103.096 8.18205 103.451 8.25559C103.77 8.31887 104.074 8.44189 104.347 8.61816C104.607 8.79216 104.818 9.02978 104.96 9.30841C105.123 9.64673 105.203 10.0192 105.192 10.3945C105.209 10.874 105.067 11.3455 104.789 11.7365C104.497 12.1177 104.069 12.3705 103.594 12.4415L105.503 15.5725L103.537 15.5826L101.965 12.6181L101.156 12.6223L101.171 15.5952L99.5315 15.6037L99.4924 8.16574ZM101.148 11.2354L102.116 11.2301C102.263 11.2296 102.419 11.2232 102.584 11.2122C102.737 11.2034 102.887 11.1706 103.03 11.1149C103.16 11.0636 103.274 10.9777 103.36 10.8665C103.454 10.7276 103.5 10.5611 103.489 10.3935C103.496 10.2346 103.455 10.0773 103.371 9.94211C103.296 9.83294 103.194 9.74486 103.075 9.6863C102.945 9.62427 102.807 9.58409 102.664 9.56739C102.514 9.5474 102.363 9.53768 102.212 9.53832L101.139 9.54412L101.148 11.2354Z" fill="white"/>
</svg>
